/* XPM */
static char *result[] = {
/* columns rows colors chars-per-pixel */
"16 23 9 1 ",
"  c black",
". c #462C2C",
"X c #793E3E",
"o c #3E3560",
"O c #816000",
"+ c #D1B123",
"@ c #D99970",
"# c #684FB9",
"$ c None",
/* pixels */
"$$$$$$$$$$$$$$$$",
"$$$$....$$$$$$$$",
"$$$.OOOO..$$$$$$",
"$$$..OOOOO..$$$$",
"$$.+OOOOOO.O.$$$",
"..+++OOOO++OO.$$",
" OOO+++++++++O.$",
"$ .OOO++OOO+O.O ",
"$ OO.OOOOOOOO. $",
"$$ .OOOOOOOO. $$",
"$$$ ..OOOO.. $$$",
"$$$ ........ $$$",
"$$o$  ....  $o$$",
"$o#$$o    o$$#o$",
"$X@$o#$$$$#o$@X$",
"$X@#o$$$$$$o#@X$",
"$$  oo$$$$oo  $$",
"$$$ OOooooOO $$$",
"$$$  OO  OO  $$$",
"$$$ ++ $$ ++ $$$",
"$$$$  $$$$  $$$$",
"$$$$$$$$$$$$$$$$",
"$$$$$$$$$$$$$$$$"
};
