/* XPM */
static char *_21fbe4e11c54d77db029ae9c2fa3337V300lZLd42TlvvHr[] = {
/* columns rows colors chars-per-pixel */
"68 55 4 1 ",
"  c None",
". c #633131",
"X c #B55252",
"o c #E78484",
/* pixels */
"                                                                    ",
"                                                                    ",
"                                                                    ",
"                               ......                               ",
"                              .XXXXXX.                              ",
"                             .XXXXXXXX.                             ",
"                            .XXXXXXXXXX.                            ",
"                      ...  .XXXX....XXXX.  ...                      ",
"                     .XXX...XX..oooo..XX...XXX.                     ",
"                    .XXXXXXX............XXXXXXX.                    ",
"                   .XXXXXXXXXXXXXXXXXXXXXXXXXXXX.                   ",
"                   .XXXXXXXXXXX......XXXXXXXXXXX.                   ",
"                   .XXXXXXXXX......X.....XXXXXXXX.                  ",
"                  .XXXXXXXX....X.X.o.......XXXXXX.                  ",
"                  .XXXXXXX.....o.o.oX..X....XXXXX.                  ",
"                  .XXXXXX....X.o.o.oo..o.....XXXX.                  ",
"                  .XXXXX.....o.o.oXoo..o..X...XXX.                  ",
"                  .XXXX...X..ooooooooooo..o...XXX.                  ",
"                   .XXX...o.ooooooooooooo.o....X.                   ",
"                   .XX...XooX..oooooo..Xooo....X.                   ",
"                    .X...oo.....oooo.....oo.....                    ",
"                     ....o..oooooooooooo..o.....                    ",
"                     ..o.oXooooooooooooooXo.o...                    ",
"                    ...o.ooooX........Xoooo.o....                   ",
"                    ...X.ooo............ooo.X....                   ",
"                   ......ooo..XXXXXXXX..ooo.......                  ",
"                   ......Xoo.XXXXXXXXXX.ooX.......                  ",
"                   .......ooX.XXXXXXXX.Xoo........                  ",
"                    . ....Xoo.XXXXXXXX.ooX.......                   ",
"                    . .....ooo.XXXXXX.ooo...... .                   ",
"                         ...ooo..XX..ooo.....                       ",
"                            ..ooo..ooo..                            ",
"                              ..oooo..                              ",
"                                ....                                ",
"                                                                    ",
"                                                                    ",
"    ............................................................    ",
"   ..............................................................   ",
"  ....oooooo...oo.........oooooooo....ooooo....oooooooo....oo.....  ",
"  ...oooooooo..oo.........oooooooo...ooooooo...ooooooooo...oo.....  ",
"  ...oo....oo..oo.........oo........ooo...ooo..oo.....oo...oo.....  ",
"  ...oo....oo..oo.........oo........oo.....oo..oo.....oo...oo.....  ",
"  ...oo........oo.........oo........oo.....oo..oo.....oo...oo.....  ",
"  ...oo........oo.........ooooooo...oo.....oo..oooooooo....oo.....  ",
"  ...oo........oo.........ooooooo...ooooooooo..oooooooo....oo.....  ",
"  ...oo........oo.........oo........ooooooooo..oo.....oo...oo.....  ",
"  ...oo....oo..oo.........oo........oo.....oo..oo.....oo...oo.....  ",
"  ...oo....oo..oo.........oo........oo.....oo..oo.....oo..........  ",
"  ...oooooooo..ooooooooo..oooooooo..oo.....oo..oo.....oo...oo.....  ",
"  ....oooooo...ooooooooo..oooooooo..oo.....oo..oo.....oo...oo.....  ",
"   ..............................................................   ",
"    ............................................................    ",
"                                                                    ",
"                                                                    ",
"                                                                    "
};
