/* XPM */
static char *_94a6faa9ea24933c0da460b16902cfcycfR9igKjBiame8R[] = {
/* columns rows colors chars-per-pixel */
"68 55 4 1 ",
"  c None",
". c #633131",
"X c #B55252",
"o c #E78484",
/* pixels */
"                                                                    ",
"                                                                    ",
"                               ......                               ",
"                              .XXXXXX.                              ",
"                             .XXXXXXXX.                             ",
"                       ...  .XXXXXXXXXX.  ...                       ",
"                      .XXX..XXXX....XXXX..XXX.                      ",
"                     .XXXXXX....oooo....XXXXXX.                     ",
"                    .XXXXXXXXXX......XXXXXXXXXX.                    ",
"                    .XXXXXXXXXXXXXXXXXXXXXXXXXX.                    ",
"                   .XXXXXXXXXX........XXXXXXXXXX.                   ",
"                   .XXXXXXX....X.X.X.....XXXXXXX.                   ",
"                  .XXXXXXX.....o.o.o......XXXXXXX.                  ",
"                  .XXXXXX....X.o.o.oo..X...XXXXXX.                  ",
"                  .XXXXX.....o.o.o.oo..o....XXXXX.                  ",
"                  .XXXX...X..oooooXooo.o..X..XXXX.                  ",
"                  .XXXX...o.oooooooooooo..o..XXXX.                  ",
"                  .XXX....ooooooooooooooo.o...XX.                   ",
"                   .XX...XooX..oooooo...ooo...XX.                   ",
"                   .XX...oo.....oooo.....Xo....X.                   ",
"                    .....o.XooooooooooooX.o.....                    ",
"                    ...o.oXooooooooooooooXo.o...                    ",
"                   ....o.ooX............Xoo.o....                   ",
"                  .....X.oo.....XXXX.....oo.X....                   ",
"                  .......oo...XXXXXXXX...oo.......                  ",
"                  .......Xo..XXXXXXXXXX..oX.......                  ",
"                  . ......oX.XXXXXXXXXX.Xo........                  ",
"                  . ......oo.XXXXXXXXXX.oo...... .                  ",
"                    . ....XoX.XXXXXXXX.XoX...... .                  ",
"                       ....oo..XXXXXX..oo.... .                     ",
"                          .Xoo..XXXX..ooX.                          ",
"                           ..ooo....ooo..                           ",
"                             ...oooo...                             ",
"                                ....                                ",
"                                                                    ",
"                                                                    ",
"    ............................................................    ",
"   ..............................................................   ",
"  ....oooooo...oo.........oooooooo....ooooo....oooooooo....oo.....  ",
"  ...oooooooo..oo.........oooooooo...ooooooo...ooooooooo...oo.....  ",
"  ...oo....oo..oo.........oo........ooo...ooo..oo.....oo...oo.....  ",
"  ...oo....oo..oo.........oo........oo.....oo..oo.....oo...oo.....  ",
"  ...oo........oo.........oo........oo.....oo..oo.....oo...oo.....  ",
"  ...oo........oo.........ooooooo...oo.....oo..oooooooo....oo.....  ",
"  ...oo........oo.........ooooooo...ooooooooo..oooooooo....oo.....  ",
"  ...oo........oo.........oo........ooooooooo..oo.....oo...oo.....  ",
"  ...oo....oo..oo.........oo........oo.....oo..oo.....oo...oo.....  ",
"  ...oo....oo..oo.........oo........oo.....oo..oo.....oo..........  ",
"  ...oooooooo..ooooooooo..oooooooo..oo.....oo..oo.....oo...oo.....  ",
"  ....oooooo...ooooooooo..oooooooo..oo.....oo..oo.....oo...oo.....  ",
"   ..............................................................   ",
"    ............................................................    ",
"                                                                    ",
"                                                                    ",
"                                                                    "
};
