/* XPM */
static char *_6c1a6bf2f744117ca9773d2106944d6OGkA3FlbDaSVdtwG[] = {
/* columns rows colors chars-per-pixel */
"68 55 4 1 ",
"  c None",
". c #633131",
"X c #B55252",
"o c #E78484",
/* pixels */
"                                                                    ",
"                                                                    ",
"                                                                    ",
"                               ......                               ",
"                              .XXXXXX.                              ",
"                             .XXXXXXXX.                             ",
"                             .XXXXXXXX.                             ",
"                       ..   .XXXXXXXXXX.   ..                       ",
"                      .XX. .XXX......XXX. .XX.                      ",
"                     .XXXX..X..oooooo..X..XXXX.                     ",
"                    .XXXXXXX............XXXXXXX.                    ",
"                   .XXXXXXXXXXXXXXXXXXXXXXXXXXXX.                   ",
"                   .XXXXXXXXXXX......XXXXXXXXXXX.                   ",
"                  .XXXXXXXXXX......X.....XXXXXXXX.                  ",
"                  .XXXXXXXX....X.X.o.......XXXXXX.                  ",
"                  .XXXXXXX.....o.o.oX..X....XXXXX.                  ",
"                  .XXXXX.....X.o.o.oo..o.....XXXX.                  ",
"                  .XXXX......o.o.o.oo..o..X...XXX.                  ",
"                  .XXX....X..ooooooooooo..o...XXX.                  ",
"                   .XX....o.ooooooooooooooo...XX.                   ",
"                   .XX...Xoo...oooooo...oooX...X.                   ",
"                    .X...oo.....oooo.....ooX....                    ",
"                     ....oX.oooooooooooo.Xo.....                    ",
"                     ..o.o.oooooooooooooo.o.o...                    ",
"                    ...o.ooooX........Xoooo.o....                   ",
"                    ...X.oooo...XXXX...oooo.X....                   ",
"                    .....oooo.XXXXXXXX.oooo......                   ",
"                    .....Xooo.XXXXXXXX.oooX......                   ",
"                    ......ooo..XXXXXX..ooo.......                   ",
"                    . ....Xooo.XXXXXX.oooX..... .                   ",
"                      .....XooX.XXXX.XooX......                     ",
"                        .....Xoo....ooX.......                      ",
"                             ..XooooX..                             ",
"                               ......                               ",
"                                                                    ",
"                                                                    ",
"    ............................................................    ",
"   ..............................................................   ",
"  ....oooooo...oo.........oooooooo....ooooo....oooooooo....oo.....  ",
"  ...oooooooo..oo.........oooooooo...ooooooo...ooooooooo...oo.....  ",
"  ...oo....oo..oo.........oo........ooo...ooo..oo.....oo...oo.....  ",
"  ...oo....oo..oo.........oo........oo.....oo..oo.....oo...oo.....  ",
"  ...oo........oo.........oo........oo.....oo..oo.....oo...oo.....  ",
"  ...oo........oo.........ooooooo...oo.....oo..oooooooo....oo.....  ",
"  ...oo........oo.........ooooooo...ooooooooo..oooooooo....oo.....  ",
"  ...oo........oo.........oo........ooooooooo..oo.....oo...oo.....  ",
"  ...oo....oo..oo.........oo........oo.....oo..oo.....oo...oo.....  ",
"  ...oo....oo..oo.........oo........oo.....oo..oo.....oo..........  ",
"  ...oooooooo..ooooooooo..oooooooo..oo.....oo..oo.....oo...oo.....  ",
"  ....oooooo...ooooooooo..oooooooo..oo.....oo..oo.....oo...oo.....  ",
"   ..............................................................   ",
"    ............................................................    ",
"                                                                    ",
"                                                                    ",
"                                                                    "
};
