/* XPM */
static char *result[] = {
/* columns rows colors chars-per-pixel */
"32 32 165 2 ",
"   c black",
".  c #33831C",
"X  c #5DEE32",
"o  c #5AE731",
"O  c #5BEA32",
"+  c #43AC25",
"@  c #266214",
"#  c #26600F",
"$  c #26600D",
"%  c #26600E",
"&  c #255E11",
"*  c #34861D",
"=  c #57DF2F",
"-  c #5CED32",
";  c #307B18",
":  c #000009",
">  c #031134",
",  c #04163E",
"<  c #04163C",
"1  c #000018",
"2  c #15350A",
"3  c #54D82E",
"4  c #5CEC32",
"5  c #317C14",
"6  c #030E23",
"7  c #1452B2",
"8  c #1761D1",
"9  c #175ECC",
"0  c #175FCC",
"q  c #175FCD",
"w  c #07225A",
"e  c #163907",
"r  c #5CEB32",
"t  c #031025",
"y  c #1557BF",
"u  c #1967DF",
"i  c #1865D9",
"p  c #1965DA",
"a  c #1764D9",
"s  c #1361D9",
"d  c #1663D9",
"f  c #1865DA",
"g  c #1965DB",
"h  c #082560",
"j  c #030F24",
"k  c #1556BB",
"l  c #1966DC",
"z  c #1863D6",
"x  c #105ED5",
"c  c #2D71DA",
"v  c #7AA5E7",
"b  c #3E7DDD",
"n  c #115ED5",
"m  c #125FD6",
"M  c #1763D7",
"N  c #08245E",
"B  c #1662D6",
"V  c #276DD9",
"C  c #6799E4",
"Z  c #C6D9F5",
"A  c #568DE1",
"S  c #2169D8",
"D  c #3C7CDD",
"F  c #2069D9",
"G  c #06235E",
"H  c #1762D6",
"J  c #87AEEA",
"K  c #BED3F3",
"L  c #4280DE",
"P  c #1963D6",
"I  c #6B9BE5",
"U  c #C6D8F6",
"Y  c #3C7CDE",
"T  c #01205D",
"R  c #1460D5",
"E  c #92B5EC",
"W  c #9BBBED",
"Q  c #5B90E2",
"!  c #A2C0EE",
"~  c #6C9CE6",
"^  c #286EDA",
"/  c #04225E",
"(  c #296FD9",
")  c #9FBEEE",
"_  c #6698E4",
"`  c #1F68D7",
"'  c #6295E3",
"]  c #A9C5F0",
"[  c #7EA8E8",
"{  c #1360D6",
"}  c #1662D7",
"|  c #1556BC",
" . c #1964D6",
".. c #1E67D7",
"X. c #1561D6",
"o. c #4984DF",
"O. c #CDDDF6",
"+. c #6396E3",
"@. c #1863D7",
"#. c #1864D8",
"$. c #041025",
"%. c #1558BF",
"&. c #1968E1",
"*. c #1663DA",
"=. c #1563DA",
"-. c #266EDD",
";. c #4986E3",
":. c #2970DD",
">. c #1562DA",
",. c #307A17",
"<. c #000011",
"1. c #07245F",
"2. c #0A2D70",
"3. c #092B6D",
"4. c #0A2C6D",
"5. c #072A6D",
"6. c #02266C",
"7. c #07296C",
"8. c #092C6E",
"9. c #00072E",
"0. c #143408",
"q. c #3A941F",
"w. c #112C09",
"e. c #112C07",
"r. c #122C06",
"t. c #122C07",
"y. c #0F2707",
"u. c #245D14",
"i. c #55DB2F",
"p. c #5BEB32",
"a. c #5AE831",
"s. c #56DC2F",
"d. c #51CF2C",
"f. c #53D62D",
"g. c #59E631",
"h. c #5EF233",
"j. c #5FF334",
"k. c #5DEF33",
"l. c #58E230",
"z. c #43AB24",
"x. c #38911F",
"c. c #40A423",
"v. c #56DD2F",
"b. c #5BE931",
"n. c #54D92E",
"m. c #183F0D",
"M. c #4FCB2B",
"N. c #16390C",
"B. c #0F2608",
"V. c #4FCA2B",
"C. c #5DED32",
"Z. c #15350B",
"A. c #0D2107",
"S. c #5EF133",
"D. c #266215",
"F. c #102809",
"G. c #205312",
"H. c #51D12C",
"J. c #5DEE33",
"K. c #5AE631",
"L. c #55D92E",
"P. c #52D32D",
"I. c #54D72E",
"U. c #59E531",
"Y. c white",
/* pixels */
"  . X o o o o o o o o o o o o o o o o o o o o o o o o o o o o o ",
"  . X o O + @ # $ % % % % % % % % % % % % % % % % % & * = O o o ",
"  . X o - ; : > , < < < < < < < < < < < < < < < < < 1 2 3 4 o o ",
"  . X o - 5 6 7 8 9 9 9 9 9 9 9 9 9 9 9 9 9 9 9 0 q w e 3 r o o ",
"  . X o - 5 t y u i i i i i i i i i i p a s d p f g h e 3 r o o ",
"  . X o - 5 j k l z z z z z z z z z z x c v b n m M N e 3 r o o ",
"  . X o - 5 j k l z z z z z z z z z B V C Z A S D F G e 3 r o o ",
"  . X o - 5 j k l z z z z z z z z z H J K L P I U Y T e 3 r o o ",
"  . X o - 5 j k l z z z z z z z R V E W Q z v ! ~ ^ / e 3 r o o ",
"  . X o - 5 j k l z z z z z z z R ( ) _ ` ' ] [ { } N e 3 r o o ",
"  . X o - 5 j | l z z z z z z z z  ...X.o.O.+.B @.#.N e 3 r o o ",
"  . X o - 5 $.%.&.p p p p p p p p f *.=.-.;.:.>.g l h e 3 r o o ",
"  . X o - ,.<.1.2.3.3.3.3.3.3.3.3.3.3.4.5.6.7.4.3.8.9.0.3 4 o o ",
"  . X o 4 q.w.e.r.t.t.t.t.t.t.t.t.t.t.t.t.t.t.t.t.t.y.u.i.p.o o ",
"  . X o a.s.d.d.d.d.d.d.d.d.d.d.d.d.d.d.d.d.d.d.d.d.d.f.g.o o o ",
"  . X a.- h.j.X - - - - - - - - - - - - - - - - - - - r o o o o ",
"  . k.l.z.x.c.v.b.o o o o o o o o o o o o o o o o o o o o o o o ",
"  . h.n.m.  w.M.- o o o o o o o o o o o o o o o o o o o o o o o ",
"  . h.3 N.  B.V.C.o o o o o o o o o o o o o o o o o o o o o o o ",
"  . h.3 Z.  A.V.X o o o o o o o o o o o o o o o o o o o o o o o ",
"  . S.s.D.F.G.H.4 o o o o o o o o o o o o o o o o o o o o o o o ",
"  . J.K.L.P.I.U.a.o o o o o o o o o o o o o o o o o o o o o o o ",
"  . X o p.4 r a.o o o o o o o o o o o o o o o o o o o o o o o o ",
"  . X o o o o o o o o o o o o o o o o o o o o o o o o o o o o o ",
"  . X o o o o o o o o o o o o o o o o o o o o o o o o o o o o o ",
"  . X o o o o o o o o o o o o o o o o o o o o o o o o o o o o o ",
"  . X o o o o o o o o o o o o o o o o o o o o o o o o o o o o o ",
"  . X o o o o o o o o o o o o o o o o o o o o o o o o o o o o o ",
"  . X o o o o o o o o o o o o o o o o o o o o o o o o o o o o o ",
"  . X o o o o o o o o o o o o o o o o o o o o o o o o o o o o o ",
"  . X o o o o o o o o o o o o o o o o o o o o o o o o o o o o o ",
"  . X o o o o o o o o o o o o o o o o o o o o o o o o o o o o o "
};
