/* XPM */
static char *_465189e4db3405de071eccd4c94c8d09dDNLfoSCnb3yjn1[] = {
/* columns rows colors chars-per-pixel */
"19 32 158 2 ",
"   c #1E0031",
".  c #25043A",
"X  c #5D260F",
"o  c #5E2B1B",
"O  c #75370C",
"+  c #793A0D",
"@  c #652F16",
"#  c #673012",
"$  c #6D3515",
"%  c #65311B",
"&  c #693419",
"*  c #733914",
"=  c #733B18",
"-  c #532D2C",
";  c #593438",
":  c #643526",
">  c #60372F",
",  c #693B2B",
"<  c #623836",
"1  c #75421A",
"2  c #220C4B",
"3  c #321347",
"4  c #4C3565",
"5  c #4B3A64",
"6  c #573E64",
"7  c #533C6A",
"8  c #354262",
"9  c #5B425C",
"0  c #624149",
"q  c #664959",
"w  c #46436B",
"e  c #5A446B",
"r  c #5B566B",
"t  c #594574",
"y  c #544A72",
"u  c #5D4A74",
"i  c #57547A",
"p  c #5C557C",
"a  c #57597C",
"s  c #614861",
"d  c #614D73",
"f  c #63517B",
"g  c #6A5678",
"h  c #6F627C",
"j  c #756173",
"k  c #883F00",
"l  c #B33325",
"z  c #B63736",
"x  c #CC0606",
"c  c #D21C1B",
"v  c #DD1D1D",
"b  c #ED0404",
"n  c #E50D0D",
"m  c #EA0B0A",
"M  c #F20202",
"N  c #ED1010",
"B  c #E41A1A",
"V  c #C32825",
"C  c #DC2625",
"Z  c #DE2827",
"A  c #D32B2B",
"S  c #DD2B2B",
"D  c #CD3333",
"F  c #D73B3A",
"G  c #E22829",
"H  c #854006",
"J  c #8C4404",
"K  c #964E07",
"L  c #984F06",
"P  c #9B5107",
"I  c #90500D",
"U  c #9F5308",
"Y  c #8D531A",
"T  c #905415",
"R  c #9E5A15",
"E  c #A45506",
"W  c #A85705",
"Q  c #A95807",
"!  c #A45608",
"~  c #A75808",
"^  c #A95808",
"/  c #A25B13",
"(  c #8C592D",
")  c #88593B",
"_  c #B34C3D",
"`  c #986434",
"'  c #A4682A",
"]  c #974959",
"[  c #B8564B",
"{  c #B55B58",
"}  c #8C6A4A",
"|  c #956A42",
" . c #926A46",
".. c #9A6E44",
"X. c #977658",
"o. c #A57E5D",
"O. c #83636A",
"+. c #96756C",
"@. c #906476",
"#. c #B16765",
"$. c #A46F74",
"%. c #A77677",
"&. c #B47577",
"*. c #C84F4D",
"=. c #D24344",
"-. c #C5605A",
";. c #C77372",
":. c #B6867A",
">. c #695684",
",. c #635A83",
"<. c #6D5B84",
"1. c #6C5F8A",
"2. c #705F8E",
"3. c #5E798E",
"4. c #616085",
"5. c #6B628C",
"6. c #666A8B",
"7. c #756889",
"8. c #6E6E94",
"9. c #726692",
"0. c #6C7395",
"q. c #657C94",
"w. c #72769A",
"e. c #876F83",
"r. c #997984",
"t. c #648094",
"y. c #688397",
"u. c #6A8499",
"i. c #77889F",
"p. c #7086A1",
"a. c #738CA4",
"s. c #768EAA",
"d. c #7990AC",
"f. c #8F848C",
"g. c #9B939B",
"h. c #B78A86",
"j. c #979CA6",
"k. c #A59BA0",
"l. c #95A3AD",
"z. c #88A1B0",
"x. c #9BACB5",
"c. c #9DABB9",
"v. c #B4A4A8",
"b. c #A1AFBD",
"n. c #A7B2BD",
"m. c #82AFC5",
"M. c #84B4C6",
"N. c #87B9CC",
"B. c #AFB9C4",
"V. c #B3BCC6",
"C. c #8FC7D9",
"Z. c #94C5D2",
"A. c #93CEDD",
"S. c #BDC6CE",
"D. c #94D3E4",
"F. c #96D7E8",
"G. c #97DBEC",
"H. c #99DAEB",
/* pixels */
"H.H.G.G.G.G.C.s.6.5.g ,.w.a.m.D.F.F.F.",
"H.H.Z.j.g.f.j ] @.] e.r.@.e.e.%.$.$.N.",
"H.H.l.c x z { N c B &.F m ;.Z m b A x.",
"H.H.j.n c #.+.Z M S &.C m h.h.G C k.Z.",
"H.G.g.b C S V m =.m =.v G o.) S N v.F.",
"H.G.k.D V l _ *.:.-.:._ [ ` ( A B &.D.",
"H.A.p.j 1 I / ` R ' / T / ~ Y ) O.7.M.",
"H.N.1.0 J P ^ P ! Q ~ K ^ ~ K k ; 1.z.",
"H.z.2.< L K ^ K ! ^ ! K ^ ! K L : 9.d.",
"D.0.d * P P ^ K ^ ^ ! K ^ ! K E $ f p.",
"C.8.s H P ! ^ K ^ ^ ! K ^ ! K ^ * f a.",
"M.,.0 K K ! ^ K ^ ^ ! K ^ ! K ! = <.a.",
"z.,.> L L ! ! K ^ ^ ! K ^ ! K ^ $ 4 q.",
"w.,., L K ^ ! K ^ ^ ! K ^ ! K ! * >.w.",
"0.u & ! K ^ ! K ^ ^ ! P ^ ! K ^ * d 4.",
"6.p * ! K ^ K U ^ ^ P P ^ ! P ! O 6 4.",
",.e + U P ^ P U ^ ^ U P ^ ! L ! * <.8.",
"5.g + U U ^ K ! ^ ^ P U ^ U U ! $ 6 y ",
"i e * P ! ~ K ! ~ ^ P U ^ U P E $ 1.5.",
"9.g H K ! ~ K ! ^ ^ P U ^ U P E $ d u ",
"p 9 + P ^ ^ K ! ^ ^ P U ^ ! P ! $ e t ",
",.9 H L ! ^ K ! ^ ^ K ! ! ! K W $ 9.5.",
"1.q J L ^ ~ K ! ~ ^ L ! ^ ! K E # 7 t ",
"y ; K L ^ ! K ~ ^ ^ K ! ^ ! K U @ >.5.",
"4.< L L Q ~ K ~ ^ ^ K ! ^ ! K E % 2.w.",
"5 - P P Q ~ K ~ ^ ^ K ! ^ ! K W @ 7 i ",
",.: U L ~ ~ K E ^ ^ K E ^ ^ K E & t 4.",
"5 X U L ^ ~ K ~ ^ ^ K E ^ ^ K ! @ 7 p ",
"5 o P K W W K P W W L U W W K E X 4 i ",
"2 - ` } X.X.X. .| ..| ......| ( - 3 y ",
"  h S.x.b.n.b.c.n.B.B.B.B.B.V.n.r . w ",
"2 a z.i.a.u.t.y.y.y.y.3.3.t.u.t.8 2 8 "
};
