/* XPM */
static char *result[] = {
/* columns rows colors chars-per-pixel */
"16 16 170 2 ",
"   c #AB8B00",
".  c #AF8D00",
"X  c #B08F00",
"o  c #B49100",
"O  c #B99600",
"+  c #BE9B00",
"@  c #BF9B00",
"#  c #C09A00",
"$  c #C09C00",
"%  c #C49E00",
"&  c #C59E00",
"*  c #C7A000",
"=  c #C7A100",
"-  c #C9A100",
";  c #C8A200",
":  c #C9A300",
">  c #CBA500",
",  c #CCA500",
"<  c #CCA600",
"1  c #CDA600",
"2  c #CDA601",
"3  c #CEA800",
"4  c #C5A00C",
"5  c #CBA30C",
"6  c #D0A800",
"7  c #D0A900",
"8  c #D5AC00",
"9  c #D5AB05",
"0  c #D5AE04",
"q  c #D9AF00",
"w  c #D9B000",
"e  c #DAB000",
"r  c #DCB100",
"t  c #DCB200",
"y  c #DCB300",
"u  c #DDB300",
"i  c #DEB300",
"p  c #DFB300",
"a  c #E0B400",
"s  c #E0B501",
"d  c #E1B600",
"f  c #E1B601",
"g  c #E3B800",
"h  c #E4BA00",
"j  c #E6BA00",
"k  c #E6BB00",
"l  c #E7BB00",
"z  c #E6BA02",
"x  c #E4BC07",
"c  c #E8BB00",
"v  c #EABD00",
"b  c #EABE00",
"n  c #EBBE00",
"m  c #EABF00",
"M  c #EABD02",
"N  c #EBBD02",
"B  c #EABE03",
"V  c #ECBF00",
"C  c #EDBF00",
"Z  c #E3BA14",
"A  c #ECC000",
"S  c #EDC000",
"D  c #EEC100",
"F  c #EEC101",
"G  c #EFC303",
"H  c #E8C00C",
"J  c #EDC40E",
"K  c #F0C200",
"L  c #F0C300",
"P  c #F1C300",
"I  c #F0C303",
"U  c #F1C400",
"Y  c #F3C500",
"T  c #F3C600",
"R  c #F2C402",
"E  c #F2C403",
"W  c #F5C600",
"Q  c #F6C700",
"!  c #F1C706",
"~  c #F2C606",
"^  c #F6C800",
"/  c #F7C800",
"(  c #F7C900",
")  c #F6C801",
"_  c #F6CA03",
"`  c #F8C800",
"'  c #F8C900",
"]  c #F9C900",
"[  c #F8CA00",
"{  c #F9CA00",
"}  c #FACA00",
"|  c #FBCA00",
" . c #FBCB00",
".. c #F8C902",
"X. c #FBCA02",
"o. c #FBCA03",
"O. c #FCCC00",
"+. c #FDCC00",
"@. c #FCCD00",
"#. c #FECD00",
"$. c #FDCE00",
"%. c #FECE00",
"&. c #FFCE00",
"*. c #F1C609",
"=. c #F0C50D",
"-. c #F3C90D",
";. c #FECF0A",
":. c #F9CD0C",
">. c #FFD100",
",. c #FFD506",
"<. c #FFD507",
"1. c #FFD60A",
"2. c #FFD60E",
"3. c #E7C21B",
"4. c #F4CB14",
"5. c #F1CE1A",
"6. c #FBD312",
"7. c #FCD213",
"8. c #FDD514",
"9. c #FED414",
"0. c #FFD714",
"q. c #FFDA16",
"w. c #FBD319",
"e. c #FBD71A",
"r. c #F8D51F",
"t. c #DCC227",
"y. c #E7CC2F",
"u. c #E8CD2E",
"i. c #F6D121",
"p. c #FDD920",
"a. c #FCDB21",
"s. c #FED923",
"d. c #FFDE24",
"f. c #FEDF28",
"g. c #FDDD2F",
"h. c #FEDC2F",
"j. c #FEDF2F",
"k. c #F7D730",
"l. c #FADB30",
"z. c #FCD931",
"x. c #F8DC36",
"c. c #F6D93B",
"v. c #FDDF39",
"b. c #FFE534",
"n. c #F9E03B",
"m. c #FFE73E",
"M. c #FFE63F",
"N. c #F9E042",
"B. c #FCE345",
"V. c #FCE946",
"C. c #F8E14B",
"Z. c #FDE84D",
"A. c #FDED4F",
"S. c #FFEE4F",
"D. c #FDE853",
"F. c #FFE953",
"G. c #FBE955",
"H. c #FFF057",
"J. c #FFF158",
"K. c #FAF05E",
"L. c #FEF05D",
"P. c #FFF25E",
"I. c #FFF96F",
"U. c #FFF275",
"Y. c #FEF971",
"T. c #FEF873",
"R. c #FEFB74",
"E. c #FFF876",
"W. c #FFFB77",
"Q. c None",
/* pixels */
"Q.Q.Q.Q.Q.Y.R.W.E.U.Q.Q.Q.Q.Q.Q.",
"Q.Q.Q.W.I.J.m.f.a.s.z.D.Q.Q.Q.Q.",
"Q.Q.T.P.d.,.<.0.e.8.X.:.B.Q.Q.Q.",
"Q.Q.L.q.1.b.V.n.x.Z.v.~ *.C.Q.Q.",
"Q.K.j.2.S.A.5.G I -.k.c.H =.Z Q.",
"Q.G.9.M.H.6.W / P d c i.3.l a Q.",
"Q.N.7.F.p.' ] { D h A F 0 q s Q.",
"y.l.;.h.! L } ] ' O.$.' 8 6 z 4 ",
"u.g.o.w._ ^ | +.O. .[ Y w ; M 5 ",
"t.r.R 4...O.#.#.{ ^ T A > , N Q.",
"Q.x ) J E %.&.#.( U v e o u p Q.",
"Q.# V B 2 k @.>.{ l < X ; b Q.Q.",
"Q.Q.t ` r O = 7 % .   1 S i Q.Q.",
"Q.Q.Q.K Q h 3 $ + : j C g Q.Q.Q.",
"Q.Q.Q.Q.y k S m n k f 9 Q.Q.Q.Q.",
"Q.Q.Q.Q.Q.Q.& * - @ Q.Q.Q.Q.Q.Q."
};
