/* XPM */
static char *_c14441fd43c46cbd1292ba950550670zEqnderAdigpT8Eg[] = {
/* columns rows colors chars-per-pixel */
"32 32 6 1 ",
"  c None",
". c #907808",
"X c #B89808",
"o c #E0B808",
"O c #F8E840",
"+ c #C7A3BB",
/* pixels */
"                                ",
"            XXX.XX.             ",
"         XXXoOoOOoX..           ",
"       XXoOOOXooXXoooX.         ",
"      XoOOooXOOoooXXXooX        ",
"     XoOooOoOo...XoooXXoX       ",
"    XoOoOOXXX.......XooXoX      ",
"   XoOoOo.XX..........XoXoX     ",
"  XoOoOo.XX............XoXoX    ",
"  XOoOo.XX..............XoXo    ",
" XoOoO.XX....XoooX.......oXoX   ",
" XOoOXXX...XoooooooX.....XoXo   ",
" XOooXX...XoooooooooX.....oXo   ",
"XoOXOX...XooXX...XXooX....oXoX  ",
"XOXOo.oooooo..XoX..oooooo.XoXo  ",
"XooO..ooooX..XoooX..Xoooo..oXo  ",
".Ooo.........oo.oo.........oXo  ",
"XOXo..ooooX..XoooX..Xoooo..oXo  ",
"XoXoX.oooooo..XoX..oooooo.XoXo  ",
".XoXo....XooXX...XXooX....oXoX  ",
" .o.o.....XoooooooooX.....oXo   ",
" .oXoX.....XoooooooX.....XoXo.  ",
" .XoXo.......XoooX.......oXoX.  ",
"  .oXoX.................XoXo    ",
"  .XoXoX...............XoXoX.   ",
"   .XoXoX.............XoXoX.    ",
"    .XoXooX.........XooXoX.     ",
"     .XoXXoooX...XoooXXoX.      ",
"      .XooXXXoooooXXXooX.       ",
"       ..XoooXXXXXoooX..        ",
"         ...XoooooX...+         ",
"            .......             "
};
