/* XPM */
static char *_8f50d76b5b34240c657b174c8d763242j5qkag8gyylRHCh[] = {
/* columns rows colors chars-per-pixel */
"32 32 33 1 ",
"  c None",
". c #796200",
"X c #897000",
"o c #927700",
"O c #917800",
"+ c #927900",
"@ c #947C00",
"# c #957C00",
"$ c #9B8500",
"% c #9B8600",
"& c #9C8600",
"* c #A98F04",
"= c #B08F00",
"- c #B09000",
"; c #B39100",
": c #B69402",
"> c #B89F00",
", c #BC9E15",
"< c #BD9E16",
"1 c #D7BC04",
"2 c #C3A829",
"3 c #C8AA2C",
"4 c #CEB23C",
"5 c #E5CD08",
"6 c #E6CD0D",
"7 c #E9D00C",
"8 c #E9D00D",
"9 c #E9D114",
"0 c #E9D015",
"q c #EFDA24",
"w c #EFD926",
"e c #F0DA20",
"r c #F2D82A",
/* pixels */
"                                ",
"                                ",
"                                ",
"                                ",
"                                ",
"                                ",
"                                ",
"                                ",
"                                ",
"                                ",
"                                ",
"                                ",
"                                ",
"                                ",
"rw9w887097777777778777785888691>",
"432<<:<,<::::::::::::::;;;:;;-;#",
"*&#%@##%@#@#@#@###@@#@@#O@#@O#X.",
"                                ",
"                                ",
"                                ",
"                                ",
"                                ",
"                                ",
"                                ",
"                                ",
"                                ",
"                                ",
"                                ",
"                                ",
"                                ",
"                                ",
"                                "
};
