/* XPM */
static char *_5cbbce376b54e8de07b71830db64418BXkUqS2ZJ5zUPaUD[] = {
/* columns rows colors chars-per-pixel */
"66 64 131 2 ",
"   c None",
".  c #7B6200",
"X  c #836500",
"o  c #846B00",
"O  c #8C6D00",
"+  c #8C7100",
"@  c #947400",
"#  c #9B7500",
"$  c #947900",
"%  c #9C7D00",
"&  c #9C7508",
"*  c #9C7908",
"=  c #947519",
"-  c #A57D00",
";  c #A57D0B",
":  c #9C8200",
">  c #A58400",
",  c #AC8600",
"<  c #A78A00",
"1  c #AD8D00",
"2  c #B38E00",
"3  c #B59300",
"4  c #BC9600",
"5  c #BD9A00",
"6  c #AF8E13",
"7  c #BA9B2C",
"8  c #C39D00",
"9  c #CE9E00",
"0  c #C5A200",
"q  c #CBA400",
"w  c #CEAA00",
"e  c #CBA60E",
"r  c #CDAE08",
"t  c #D0A700",
"y  c #D5AD00",
"u  c #D9AF00",
"i  c #D3AE09",
"p  c #DDB400",
"a  c #DEBA00",
"s  c #D6B308",
"d  c #CEAE13",
"f  c #E2B600",
"g  c #E6BC00",
"h  c #ECBE00",
"j  c #E6BE08",
"k  c #C09F2C",
"l  c #D9BD21",
"z  c #C3A231",
"x  c #DEBE34",
"c  c #EFC200",
"v  c #EFC409",
"b  c #F6C500",
"n  c #F7C900",
"m  c #FDCC00",
"M  c #F7CE08",
"N  c #FFCE08",
"B  c #FFD300",
"V  c #FFDB01",
"C  c #FFD208",
"Z  c #FFDF08",
"A  c #E9C313",
"S  c #E9C41B",
"D  c #E9C91E",
"F  c #F3CB12",
"G  c #FECE10",
"H  c #EFD719",
"J  c #EFD819",
"K  c #F7D416",
"L  c #FED511",
"P  c #FFD816",
"I  c #FED519",
"U  c #FDDB1C",
"Y  c #E6CE26",
"T  c #EFCE24",
"R  c #EFD42C",
"E  c #F4D225",
"W  c #FAD222",
"Q  c #FDDB24",
"!  c #F7D728",
"~  c #FFDC2A",
"^  c #F4D137",
"/  c #FFD731",
"(  c #FFDC32",
")  c #F7DB3A",
"_  c #FFDF3A",
"`  c #FFE321",
"'  c #FFE02C",
"]  c #FEE331",
"[  c #FFEB31",
"{  c #F4E03C",
"}  c #FFE23C",
"|  c #FFEC3B",
" . c #E9D542",
".. c #ECD842",
"X. c #F7DF47",
"o. c #FCDF42",
"O. c #FFDF4A",
"+. c #EFDF5A",
"@. c #FFDF52",
"#. c #F0DF5B",
"$. c #F7E047",
"%. c #FDE546",
"&. c #F7EF43",
"*. c #FFEA45",
"=. c #FEE54A",
"-. c #FCE84D",
";. c #F7F043",
":. c #FFF34A",
">. c #EFE450",
",. c #EFE05A",
"<. c #F2E152",
"1. c #FCE452",
"2. c #F7E950",
"3. c #FFEC51",
"4. c #FFE75A",
"5. c #FFED59",
"6. c #FFFB53",
"7. c #FFF45B",
"8. c #EFDF68",
"9. c #FFEB63",
"0. c #F4E968",
"q. c #FFEE6B",
"w. c #FFF363",
"e. c #FFF46B",
"r. c #FFEF7B",
"t. c #FFF573",
"y. c #FFFD73",
"u. c #FFF57B",
"i. c #FFFE7B",
"p. c #FFF781",
"a. c #FFFD84",
/* pixels */
"                                                                      i.u.                                                          ",
"                                              &.;.;.e.e.e.e.a.a.a.a.u.u.u.i.a.a.                                                    ",
"                                          %.9.y.y.i.i.i.i.i.i.i.i.i.i.u.i.u.r.r.r.r.u.                                              ",
"                                    5.5.i.i.i.i.i.i.i.i.i.i.i.i.i.i.i.i.i.i.r.r.r.r.u.r.u.                                          ",
"                                q.w.i.i.i.i.i.i.i.i.i.i.i.w.7.7.7.7.7.7.4.7.4.4.4.4.u.u.r.u.u.u.                                    ",
"                              w.p.i.i.i.i.i.i.i.t.e.w.3._ } Q Q Q U K C C L U P I I / =.9.u.i.u.i.u.                                ",
"                            e.i.i.i.y.y.y.y.7.7.| } Q P C B B B B b c V M B m m n m b b G ( =.y.t.y.t.                              ",
"                          y.i.i.i.i.y.t.5.] U U B B B B C B B B B h c B B B m m m m b b b n n Q =.t.t.9.                            ",
"                      4.y.a.i.i.i.w.5.[ L L m B B B B m B B B B B n b V M B B m m n b b b b b n Q -.t.p.t.9.                        ",
"                      y.a.a.i.e.3.%.C L L L B B B B B B B B B B B B c V V B n B n m m b b b m b n Q @.t.t.t.6.                      ",
"                    w.i.i.i.w.*.Q B m m m V V B V B B B B B N N N N M M M M C N N N m m m m c b b n b =.e.e.a.,.                    ",
"                  1.i.i.i.7.*.Q B B m V V m B V V V B B B Q ~ Q %.%.-.-.-.%.~ ~ ~ N m m m m m n n n b b %.e.a.u.#.                  ",
"                1.u.i.i.w.%.U B B B m B V B V V B V Q *.:.e.e.e.e.e.e.e.e.e.t.t.1.~ I m m m B n c h n b b %.u.a.u.#.                ",
"              ! u.u.i.w.*.~ B B B m V V B m V Q %.9.e.e.w.y.e.e.e.=.%.e.e.e.t.t.t.t.O./ m m n b c n b b n b +.t.a.0.                ",
"            r y.y.y.e.%.Q m V V B V C C C ~ 5.5.y.y.7.7.7.7.] ] Q Q v K ' ` e.e.e.e.e.$.T h h c g g b f p b W q.e.q.x               ",
"          J >.y.y.y.e.Q m m V B V V C C 3.y.y.y.y.y.6.{ ) D F c c F f f K K W %.e.e.e.e.q.E g g c h h f h n b W q.q.8.9             ",
"          J y.y.y.y.=.m B m V V B L ' -.y.y.y.t.t.7.{ D D p c c c F g f K v n n Q =.e.e.e.e.X.g g g p p b c b h W q.x x 9           ",
"        J <.y.y.y.>.Q B m m V V C / 3.y.y.y.y.7.| Q D p u p b h c F v f v v n b n ! E =.e.e.q.q.Y c y p c c b b h W x x 9           ",
"        j 2.i.i.u.( m m m C C L ] 3.y.y.y.y.:.' U n a y f n n n b n c g b c h n b b h F ! %.9.9.9.I p a p p b g b h b b y           ",
"        j y.i.i.4.G m m C V L ] 5.t.y.y.y.7.[ n n n n b n n n h c b b c b b h h h h h h b F _ 9.9.q.^ p a p f c h b b b y #         ",
"        j y.i.i.( L m m C Z L 3.t.t.y.y.7.' b n n n b c b n b h b b b b n c h h f f h h h h W %.9.9.@.S p p p c h b b b y @         ",
"        R y.i.4.( G m m Z Z ] t.y.y.y.7.*.' U n n n c b n n n n n b b b c c h p y y h h h h b W o.9.@.S p a f h c b b b y @         ",
"        +.t.t.=.! n C C C Q 7.t.t.t.w.%.Q C B b c n n n n n m n n b c c c g p w q p f h c h c F W ] Q S 5 i h g c c c c u 2         ",
"        X.t.t.=.n b C C C _ y.t.t.7.%.Q C C B b c b b b n m m n b n c c b p w w y p h h g c c c F W U A 4 i f g g c h b u 8 *       ",
"      s t.t.t.Q n b C C Q 4.t.t.t.:.Q C C C n n m n h h n m m m n b c c g y y y y p g g f c c c c c S i 4 4 f u g h c c u u *       ",
"      s t.t.t.Q n n C C _ 4.t.t.7.[ C C C C B n n n m b m m m n n b c c p y s f g g c g c c c c c c A i 4 8 t p g b c c c u *       ",
"       .w.w.O.I n b C C O.q.q.q.%.~ m m B b c n n n m m m b m b b n n g g g c g c g c b c c g g p p g g y 8 9 u y g c c b 0 > >     ",
"    5  .w.q.O.K b n C C =.q.q.=.~ C m n n n c c m m m n b n n b n b b c c c c c n n b n c a g g b h y y , , 8 s s h c c p 8 7 >     ",
"    5  .w.w./ n b b C C ~ q.q.=.~ C n n g c b b m m m b m m m n c h b b c c b n m n B m B m n m n m g y , , 5 q s g c c f y 7 >     ",
"    5  .w.w.K n b b C N ~ O.=.~ C C c c a s g n n n m b m b b m n b n n n n m B m m m m m m m m m n c g 8 , q q s g c c f a 7 >     ",
"    g X.e.X.C C m m m m Q _ } Q b n c y 0 y n n m n b n b m b m n m m m n m m B m B B B B B m B n g y y q 4 3 3 h f h h h h j 6     ",
"  y g T e.e.Q C m m m m G _ } K n n n b g g n n n m m m m b m b m m n m m m m B m m B B B B m m h g g u q 4 t q g g h c b h j e     ",
"    g X.e.e.Q m m m m m m Q } ~ C M n n n b c m m b m b n m n m B B m m n m B m m m V n b n b B b c g y q g w 3 q g h b h h j e     ",
"    g X.e.e.` m m m m m m Q } ! n n n n n b n m n m b m m n m B B B m m m b m m m n n h b n n b b g g g f g : : q g h b h h j e =   ",
"    0 ..w.w.L m m m v b v I _ G n n n c n n h m B n m n b m m m m m m B m n n n n n n n n n b c c a g g c 3 $ 1 q g n h h h 7 , ,   ",
"    0 ..w.w.N m m m v f v I _ K n n n n n n h n B m m b m b m m m m m b n B n n n n n n b c b c g g g g y > $ 1 q g b h h b k ,     ",
"    0 ..w.w.L m m h v h g I _ G n n n n n n n B B n m m m m m m m B B c c b b b n n n c c n n c c p g c 3 : 1 w g g b h b B k ,     ",
"    l l w.w.P m m m h h g I _ K n n c n n n b m B B m n m m m B m m n n b b b n n b n n c n b c g p g c > > 1 q g g h b m m 7 2     ",
"    2 d | | m n m b p p u C ) F h h B n m m b B B m m m m m m B m m b n n n n n n n n c b b c g g g f g 1 $ 5 p p h m b b b &       ",
"      2 Y | m N h h h v f b ) S h h m B m m m m m m m m m B m m B m n b B n c n n n c c b b g h g b g q 1 1 5 a f h b b b y         ",
"      2 Y Y m m n n C M s n ) F h h m m m m m m B m m m m B m m n n n n b n n n n n c c h g y p g p q 1 $ 1 5 5 t t b b t +         ",
"        d Y m B B B N b g h ) E h b m m m B B m m m m m m m m n n n n n c n c c c c c c h u p p g y q $ $ 2 5 p h b b n 2           ",
"        > y n n n n m m n h j I i i m m m m n m B m m m m B B m m m n b c c h b c c c f p f p f p 8 3 @ @ 3 g m m m b b @           ",
"        O y p n b b b m m h A A i u p m B B m n V n m B m m B m m m m m b c c h c c g p p u u p p 8 @ @ @ w h n b n c q             ",
"          O 8 s p s b m n m v i i i p h m m h m B n m m m B B m B B m B b g c c c g p p y p p s 8 + @ @ 2 c n b h b c 2             ",
"            - 8 p b m b h b A i 5 5 0 u c h b V n V m m m B B m B B m b g g c h g p f y y p p 0 + + @ 3 c c h g g h t @             ",
"            @ q g g b b n b b b 0 1 3 3 8 u n n n n m B m B m m B B n b c h f g g q w w y w < o o o 3 c c c c c c c ;               ",
"            @ q f g h b n h b b p 0 2 > 2 8 p s n n m m m m B B m m n b b n g g g q 3 3 3 : o o o < c c c c c c c c                 ",
"              2 q g g b b c b b b f 2 > > > < 5 p p b m m m B m B m b b n n g q q 3 3 : : o o o q c c c c c c c c >                 ",
"              @ q g b b c c n b b b u 2 > - > > < 5 s h n B n m n b h h y y q 3 % % : o o o < q c c c c c c c c q                   ",
"                2 t p b n n m B m n b b 8 1 $ $ $ $ , q q 0 8 0 8 9 > > , > X o o o o o < w h b b c c c c c c c @                   ",
"                O 3 8 b n n m m m m b b f p 0 1 $ $ + + + + . . . . . . . . o o o o < q c c n h h c c c c c c t                     ",
"                  O 8 p n n B m B n n f b b p a 0 0 , , + + $ @ . $ @ + @ @ > > > 5 b c c c h h h h h c g h c @                     ",
"                    > s n n m n n b b b b b p p p a g g q 0 0 8 0 0 5 5 5 5 5 p p p c c b h h h c f f c f c 2                       ",
"                      > g c b b b b n n n b c c g a y y p y y y y y y y p p y h c c n h h b b g f g c c c q #                       ",
"                        0 h b b b n c c c c c c c c g a p a p p y p p a h h y y c c c c h h g g g g c c q +                         ",
"                          > n n b b b c c c c c n c c c c g c g f c c c g g g g g g b c h f h f g n t ,                             ",
"                            O t n b g c c n b n c c c c c c g g c g g g c c c c g g h h h g f g n 0                                 ",
"                                X O 0 c c g c c c c c c c c h g c g c h h h g g g g g g g g z z -                                   ",
"                                      O < 0 c c c c c c c c c h c g h h c h g c g g g g 8 q - -                                     ",
"                                          O > , 0 c c c h f h b h h h h h h g g 8 8 , , , O                                         ",
"                                                o < 8 8 y f h s h b h p q 3 : . . .                                                 ",
"                                                    . . . @ % @ % % @ X .                                                           ",
"                                                          . X X X X                                                                 "
};
