/* XPM */
static char *_640be209bf14aeaee45ff7127e3d27cs30uN7FkZ49Z2hcg[] = {
/* columns rows colors chars-per-pixel */
"32 32 8 1 ",
"  c None",
". c #584800",
"X c #685000",
"o c #786000",
"O c #887000",
"+ c #987800",
"@ c #B89808",
"# c #D8B840",
/* pixels */
"                                ",
"                                ",
"                                ",
"                                ",
"                                ",
"                                ",
"                                ",
"          #@@@@@@@@@#           ",
"       @@@@@@@@@@@@@@@@@        ",
"     @@@@...XoooooX...@@@@      ",
"   @@@.XoOOO++OOO++OOOXX.@@@    ",
" #@@.XoO+OOoooXXXoooOO+OoX.@@   ",
"#@.XoO+OoX...........XoO+OoX.@  ",
"@.X+O+o......XXXXX......o+O+X.@ ",
"@.+o+o....XoO+++++OoX....o+o+.@ ",
".o+o+.XXXo++ooooooo++oXXX.+o+o. ",
".+o+..OOOOoX.o+O+o.XoOOOO..+o+. ",
".+o+..OOOOoX.o+O+o.XoOOOO..+o+. ",
".oOo+.oooO++ooXoXoo++Oooo.+OOo. ",
" .+o+o....XO+++++++OX....o+o+.  ",
" .X+o+X......XoooX......X+o+X.  ",
"  .XOOOOX.............XOOOOX.   ",
"    .XOO+OOooX...XooOO+OOX.     ",
"      .ooOOO++OOO++OOOoo.       ",
"         ...ooooooo...          ",
"                                ",
"                                ",
"                                ",
"                                ",
"                                ",
"                                ",
"                                "
};
