/* XPM */
static char *_7af71d6dc1d4c2da637af6985509b2f54MvSQ97owj8yhr6[] = {
/* columns rows colors chars-per-pixel */
"32 32 146 2 ",
"   c None",
".  c #846B00",
"X  c #8B6E00",
"o  c #906F00",
"O  c #927400",
"+  c #957A00",
"@  c #987B00",
"#  c #9C7908",
"$  c #A67F02",
"%  c #A07A08",
"&  c #9E8100",
"*  c #A48300",
"=  c #AB8A00",
"-  c #AC890E",
";  c #B59300",
":  c #BB9600",
">  c #BF9A00",
",  c #BE9A08",
"<  c #B79216",
"1  c #B1911A",
"2  c #B9961C",
"3  c #C39E00",
"4  c #CE9F01",
"5  c #C4A000",
"6  c #CAA301",
"7  c #CFA900",
"8  c #D4AC00",
"9  c #DAAF00",
"0  c #D4AF09",
"q  c #D6B104",
"w  c #DDB300",
"e  c #DBB40A",
"r  c #E2B600",
"t  c #E5BB00",
"y  c #EBBE00",
"u  c #E3BD0F",
"i  c #F0BF00",
"p  c #D8BE29",
"a  c #DEBE34",
"s  c #EEC100",
"d  c #EFC40A",
"f  c #F4C500",
"g  c #F8C700",
"h  c #F7C901",
"j  c #FDCC00",
"k  c #F0C70E",
"l  c #F8CC0D",
"z  c #FFD301",
"x  c #FFD800",
"c  c #FFD309",
"v  c #FFDE08",
"b  c #EAC515",
"n  c #E9C31B",
"m  c #F3CA14",
"M  c #F3CD1D",
"N  c #F9CE1C",
"B  c #F6D115",
"V  c #FBD415",
"C  c #FFDB14",
"Z  c #F7D018",
"A  c #FED61A",
"S  c #FEDB1D",
"D  c #DCC125",
"F  c #DCC328",
"G  c #DFC832",
"H  c #E2C823",
"J  c #EECB20",
"K  c #FED723",
"L  c #FDDB24",
"P  c #F0D12A",
"I  c #FCDB2B",
"U  c #F4DE33",
"Y  c #FFDD35",
"T  c #FEDE3A",
"R  c #FFE334",
"E  c #FBE937",
"W  c #FEE33A",
"Q  c #FFEC3B",
"!  c #E3C843",
"~  c #FEDE50",
"^  c #FAE244",
"/  c #F5E649",
"(  c #FCE44D",
")  c #FDEB4C",
"_  c #FFE553",
"`  c #FDEE54",
"'  c #FDEB5C",
"]  c #FFF159",
"[  c #FEED64",
"{  c #F6EC6B",
"}  c #FFED6B",
"|  c #F6F060",
" . c #FFF263",
".. c #FFF363",
"X. c #FFF262",
"o. c #FFF160",
"O. c #FFF760",
"+. c #FFF462",
"@. c #FFF563",
"#. c #FFF166",
"$. c #F9F465",
"%. c #FFF567",
"&. c #FFF363",
"*. c #FFF864",
"=. c #FFF268",
"-. c #FFF368",
";. c #FFF36B",
":. c #FFF768",
">. c #FFF46B",
",. c #FFF56B",
"<. c #FFF36D",
"1. c #FFF66E",
"2. c #FFF36B",
"3. c #FFFA6C",
"4. c #FFFA6F",
"5. c #FFEF7B",
"6. c #FFF370",
"7. c #FFF373",
"8. c #FFF273",
"9. c #FFF772",
"0. c #FFF673",
"q. c #FFF773",
"w. c #FBF077",
"e. c #FFF775",
"r. c #FFFA70",
"t. c #FFFA71",
"y. c #FFF972",
"u. c #FFFB72",
"i. c #FFFB73",
"p. c #FFFF73",
"a. c #FFFB77",
"s. c #FFF37B",
"d. c #FBF678",
"f. c #FFF77A",
"g. c #FFF67B",
"h. c #FFF77E",
"j. c #FFFB7B",
"k. c #FFFE79",
"l. c #FFFD7B",
"z. c #FFFE7A",
"x. c #FFFF7B",
"c. c #FFF980",
"v. c #FFFA81",
"b. c #FEFC81",
"n. c #FFFF83",
"m. c #FFFC85",
/* pixels */
"                          <.7.m.b.g.b.                          ",
"                  [ >.a.x.x.x.x.x.j.s.5.s.                      ",
"                9.x.x.x.t.@.) W W W W T _ } g.j.                ",
"            9.x.x.i.) W A c z z f z j j f h I ' 8.              ",
"          ;.n.t.` S c z z z z z h x j j g f h V [ 7.            ",
"          x.4.R x j z x x z A A I I L A j j h f f ' n.          ",
"        s.i.W z z x z C W ] >.;.` 1.6.[ T j j s g g { d.        ",
"      ' i.W j x x c ` %.3.) U B d B W $.;.( y t f t N } !       ",
"    E p.$.l j x K @.i.@.W u t s d d f l ^ } ' b 9 f f N a 4     ",
"    / d.Y j x L X.i.] V f y f f f s s f i m ( [ n w y y g 4     ",
"    ` 9.A j v X.t.*.I j h f f f f f s w t i l _ ~ w r f g 3     ",
"    { ' h c I 7.$.R c h f h j h f f w 8 r y s Z L 3 t y y 7     ",
"  q 9.T h c _ 7.Q c c h h f j j s t q w t y s s n : 9 y f r #   ",
"  G $.K f c } ' A h f h h j g h f y s s h s y t w 3 5 w s w -   ",
"  F #.l f c _ W c s t h j j j g f f h j j j j j t ; 3 w s r 1   ",
"  J [ c j j T A h t t h h g g g j j j z z z j f w 6 3 t y s 0   ",
"  P 9.c j j K L h h h j j g h z z j j j j h h f t 9 ; 8 s y e   ",
"  F #.j j y A V h f f j j j j j j h h h f h f y t q + 8 f y 2   ",
"  D #.j g y A V h j h z j h j j j f h h h s f s t = ; t f h 2   ",
"  , W j f y h m s j j z j j z j h j f h f h s t t = 5 t f f     ",
"    H j h h d M y j z j j j j j h h f f s y w t 6 + 3 r g ;     ",
"    3 h h j y m 0 j z j z j z j j f s f y w w w * + y h y       ",
"      5 t h j 0 6 t f j j j z j z f y y r 8 w = O 8 f y 8       ",
"      : t f f f : = 8 s h z j x h f y t 3 5 @ . 7 f y f %       ",
"      * r f s f t = * ; 8 f j j f y w ; = O O w i s f 7         ",
"        : f h j h f 3 $ + = * & + O X . O 3 f f f s i O         ",
"          q h j h y f w 7 > = = = * = > s s y y t t 6           ",
"            t g f h s s t w q 8 w r w s f t i t s w             ",
"              r f f s f s s y t t y y t y y t i :               ",
"                  > w s s f s y s y s t t w < $                 ",
"                      * 7 w t t f w 5 = *                       ",
"                            o o X                               "
};
