/* XPM */
static char *ff511ee23d1f4ce8edb77920fc8c5999xwnKOxDpuHBTaZl9[] = {
/* columns rows colors chars-per-pixel */
"32 32 9 1 ",
"  c None",
". c #907808",
"X c #B89808",
"o c #C8B038",
"O c #D8B840",
"+ c #E8C840",
"@ c #F8E040",
"# c #F8E840",
"$ c #C7A3BB",
/* pixels */
"                                ",
"                                ",
"                                ",
"                                ",
"                                ",
"                                ",
"                                ",
"          ooO+++++Ooo           ",
"        +@@@##@@@##@@@+         ",
"    oO@@#@@+++OOO+++@@#@@O      ",
"  oO@@#@+OoooooooooooO+@#@@O    ",
" oO#@#+ooooooO+++Ooooooo+#@#O   ",
"$o#@#+ooooO+@#####@+Ooooo+#@#o  ",
"o+#@#oOOO+##+++++++##+OOOo#@#+  ",
"o#+#Oo@@@@+Oo+#@#+oO+@@@@oO#+#o ",
"o#+#oo@@@@+Oo+#@#+oO+@@@@oo#+#o ",
"o@@+#o+++@##+++++++##@+++o#@@@o ",
"Xo#+#+ooooO@#######@Ooooo+#+#oX ",
"XoO#@#+ooooooO+++Ooooooo+#@#OoX ",
".XoO@@#@+OoooooooooooO+@#@@OoX. ",
"$.XXoO@##@@++OoooO++@@##@OoXX.  ",
"  .XXXo++@@@##@@@##@@@++oXXX.   ",
"    .XXXXooo+++++++oooXXXX.     ",
"      .XXXXXXXXXXXXXXXXX.       ",
"         ..XXXXXXXXX..          ",
"                                ",
"                                ",
"                                ",
"                                ",
"                                ",
"                                ",
"                                "
};
