/* XPM */
static char *result[] = {
/* columns rows colors chars-per-pixel */
"16 23 11 1 ",
"  c black",
". c #462C2C",
"X c #793E3E",
"o c #3E3560",
"O c #816000",
"+ c #D1B123",
"@ c #D99970",
"# c #684FB9",
"$ c #F0C199",
"% c #F8D9B9",
"& c None",
/* pixels */
"&&&&&&&&&&&&&&&&",
"&&&&&&&....&&&&&",
"&&&&&..OOOO.&&&&",
"&&&..OOOOO..&&&&",
"&&.O.OOOOOO+.&&&",
"&.+O.OOOOO+++..&",
"&.O+O .OO+O+OOO ",
" O.O.OO.OOOOO. &",
"& .O.$%%..O.OO &",
"&&  @X%%%%X@. &&",
"&& @@$ %% $@@ &&",
"&&&X@@X$$X@@X&&&",
"&& & X@@@@X & &&",
"& #&&X    X&&# &",
"&X@&oo&##&oo&@X&",
"&X@@ &&&&&& @@X&",
"&&  oo&&&&oo  &&",
"&&& OOooooOO &&&",
"&&&  OO  OO  &&&",
"&&& ++ && ++ &&&",
"&&&&  &&&&  &&&&",
"&&&&&&&&&&&&&&&&",
"&&&&&&&&&&&&&&&&"
};
