/* XPM */
static char *efaddfa801d345219d834672bc5f3f3fLSh2IehmxtxZcEvB[] = {
/* columns rows colors chars-per-pixel */
"90 39 201 2 ",
"   c None",
".  c black",
"X  c gray1",
"o  c #060606",
"O  c gray3",
"+  c #0B0B0B",
"@  c gray6",
"#  c #111111",
"$  c gray7",
"%  c #151515",
"&  c gray10",
"*  c gray11",
"=  c #1D1D1D",
"-  c #1E1E1E",
";  c gray12",
":  c #202020",
">  c gray13",
",  c #222222",
"<  c #232323",
"1  c gray14",
"2  c #252525",
"3  c gray15",
"4  c #272727",
"5  c #282828",
"6  c gray16",
"7  c #2A2A2A",
"8  c gray17",
"9  c #2C2C2C",
"0  c #2D2D2D",
"q  c gray18",
"w  c #323232",
"e  c gray20",
"r  c #343434",
"t  c #353535",
"y  c gray21",
"u  c #373737",
"i  c gray22",
"p  c #393939",
"a  c #3A3A3A",
"s  c gray23",
"d  c #3C3C3C",
"f  c gray24",
"g  c #3F3F3F",
"h  c gray25",
"j  c #414141",
"k  c gray26",
"l  c #434343",
"z  c gray27",
"x  c #464646",
"c  c gray29",
"v  c #4B4B4B",
"b  c #4C4C4C",
"n  c gray30",
"m  c gray31",
"M  c #515151",
"N  c gray32",
"B  c #535353",
"V  c #555555",
"C  c #565656",
"Z  c gray34",
"A  c #585858",
"S  c gray35",
"D  c #5A5A5A",
"F  c gray36",
"G  c #5D5D5D",
"H  c gray37",
"J  c #5F5F5F",
"K  c #606060",
"L  c gray38",
"P  c #626262",
"I  c gray39",
"U  c #646464",
"Y  c gray40",
"T  c #676767",
"R  c #6A6A6A",
"E  c gray42",
"W  c #6C6C6C",
"Q  c #6D6D6D",
"!  c gray43",
"~  c #6F6F6F",
"^  c gray44",
"/  c #717171",
"(  c #727272",
")  c gray46",
"_  c #777777",
"`  c gray47",
"'  c #797979",
"]  c #7B7B7B",
"[  c gray49",
"{  c gray50",
"}  c #808080",
"|  c #818181",
" . c gray51",
".. c #838383",
"X. c #848484",
"o. c gray52",
"O. c #868686",
"+. c gray53",
"@. c #888888",
"#. c #898989",
"$. c gray54",
"%. c #8B8B8B",
"&. c gray55",
"*. c #8D8D8D",
"=. c #8E8E8E",
"-. c gray56",
";. c #909090",
":. c #929292",
">. c #959595",
",. c #979797",
"<. c #989898",
"1. c #9A9A9A",
"2. c gray61",
"3. c #9D9D9D",
"4. c #A0A0A0",
"5. c gray63",
"6. c #A2A2A2",
"7. c gray64",
"8. c #A4A4A4",
"9. c #A5A5A5",
"0. c gray65",
"q. c #A7A7A7",
"w. c gray66",
"e. c #AAAAAA",
"r. c gray67",
"t. c #ACACAC",
"y. c gray68",
"u. c #AEAEAE",
"i. c #AFAFAF",
"p. c gray69",
"a. c #B1B1B1",
"s. c gray70",
"d. c #B4B4B4",
"f. c #B6B6B6",
"g. c #B7B7B7",
"h. c gray72",
"j. c #B9B9B9",
"k. c gray73",
"l. c #BBBBBB",
"z. c #BCBCBC",
"x. c gray74",
"c. c gray",
"v. c gray75",
"b. c #C0C0C0",
"n. c #C1C1C1",
"m. c gray76",
"M. c #C3C3C3",
"N. c #C6C6C6",
"B. c gray78",
"V. c #C8C8C8",
"C. c gray79",
"Z. c #CBCBCB",
"A. c gray80",
"S. c #CDCDCD",
"D. c #CECECE",
"F. c gray81",
"G. c #D0D0D0",
"H. c gray82",
"J. c #D2D2D2",
"K. c LightGray",
"L. c gray83",
"P. c #D5D5D5",
"I. c gray84",
"U. c #D7D7D7",
"Y. c #D8D8D8",
"T. c gray85",
"R. c #DADADA",
"E. c gainsboro",
"W. c #DDDDDD",
"Q. c #DFDFDF",
"!. c gray88",
"~. c #E1E1E1",
"^. c #E2E2E2",
"/. c gray89",
"(. c #E4E4E4",
"). c gray90",
"_. c #E6E6E6",
"`. c #E7E7E7",
"'. c gray91",
"]. c #E9E9E9",
"[. c #EAEAEA",
"{. c gray92",
"}. c #ECECEC",
"|. c gray93",
" X c #EEEEEE",
".X c #EFEFEF",
"XX c gray94",
"oX c #F1F1F1",
"OX c gray95",
"+X c #F3F3F3",
"@X c #F4F4F4",
"#X c gray96",
"$X c gray97",
"%X c #F8F8F8",
"&X c #F9F9F9",
"*X c gray98",
"=X c #FBFBFB",
"-X c gray99",
";X c #FDFDFD",
":X c #FEFEFE",
">X c white",
/* pixels */
"    b ! E E E E ! E E E ! E E ! ! b         5 T ! E E E E E E E E E E ! d         s ! E ! E E ! E E ! E E E E E E E E E E E E E E E T 5             I E E E E E E E E E ! E E ! E u ",
"  . 6.>X>X>X>X=X=X>X>X>X=X>X>X=X>Xe.        z +X>X>X=X>X>X>X>X>X=X>X>X>X{         _ >X=X=X>X=X>X>X=X=X>X>X=X>X>X=X>X>X>X>X>X=X>X=X>X+Xz           5 Y.>X>X=X>X>X=X>X>X>X=X>X>X=X=X! ",
"v 6.E.>X>X>X>X>X>X>X>X>X>X>X>X>X>Xi.      +.d.=X>X>X>X>X>X>X>X>X>X>X>X>XA.,.u     _ >X>X>X>X>X>X>X>X>X>X>X>X>X>X>X>X>X>X>X>X>X>X>X>X=Xl.|       / i.$X>X>X>X>X>X>X>X>X>X>X>X>X>X>X! ",
"! >X>X>X>X>X>X+X).).).).).).).).{.3.    > A.>X>X>X>X>X=X{.).).$X>X>X>X>X>X$Xb     _ >X>X>X>X>X>X+X).)..X>X>X>X>X>X>X$X).).{.=X>X>X>X>X>XJ.-     i.>X>X>X>X>X>X{.).).).).).).).).!.T ",
"! >X>X>X>X>X>X;.w d s s d s s s d 9     > A.>X>X>X>X>XE.z s u i.>X>X>X>X>X+Xv     _ >X>X>X>X>X>X+.w u I $X>X>X>X>X>Xs.u s z E.>X>X>X>X>XA.-     e.>X>X>X>X>X+XD u s s s d s s s s > ",
"! =X>X>X>X>X>X{                         - A.>X>X>X>X>XJ.>     6.>X>X>X>X>X+Xb     _ >X>X>X>X>X>X_     v .X>X>X>X>X>X6.    > I.>X>X>X>X>XA.>     i.>X>X>X>X>X{.k                     ",
"E =X>X>X>X>X>X{                         > A.>X>X>X>X>XI.-     6.>X>X>X>X>X+Xb     _ >X>X>X>X>X>X_     b +X>X>X>X>X>X6.    4 J.>X>X>X>X>XA.>     e.>X>X>X>X>X.Xs                     ",
"! >X>X>X>X>X>X| . ! @.+.+.+.+.+.@.I     > A.>X>X>X>X>X{.=.+.+.A.>X>X>X>X>X+Xb     _ >X>X>X>X>X>X_     b .X>X>X>X>X>X6.    4 I.>X>X>X>X>XV.>     e.>X>X>X>X>X$X<.+.+.+.| u           ",
"E >X>X>X>X>X>X| + V.>X>X>X>X>X>X>Xi.    > V.>X>X>X>X>X>X>X>X>X>X>X>X>X>X>X.Xb     _ >X>X>X>X>X>X]     b .X>X>X>X>X>X6.    4 I.>X>X>X>X>XA.>     i.>X>X>X>X>X>X>X>X>X>X=XC           ",
"! >X>X>X>X>X>X| + B.>X>X>X>X>X>X>Xe.    > A.>X>X>X>X>X>X>X>X>X>X>X>X>X>X>X+Xb     _ >X>X>X>X>X>X_     b +X>X>X>X>X>X6.    5 J.>X>X>X>X>XA.-     e.>X>X>X>X>X>X>X>X>X>X$XD           ",
"E >X>X>X>X>X>X| + 6.!.>X>X>X>X>X>Xe.    > A.>X>X>X>X>X=XY.J.I..X>X>X>X>X>X+Xb     _ >X>X>X>X>X>X_     b .X>X>X>X>X>X6.    4 I.>X>X>X>X>XA.>     e.>X>X>X>X>X>XY.J.J.J.V.b           ",
"! =X>X>X>X>X>X|   & v .X>X>X>X>X>Xi.    > A.>X>X>X>X>XY.w 4 - e.>X>X>X>X>X+Xb     _ >X>X>X>X>X>X_     v +X>X>X>X>X>X6.    4 J.>X>X>X>X>XA.>     i.>X>X>X>X>X.Xv - 4 4 4             ",
"! =X>X>X>X>X>X{     k {.>X>X>X>X>Xi.    > A.>X>X>X>X>XJ.4     6.>X>X>X>X>X+Xb     _ >X>X>X>X>X>X_     b +X>X>X>X>X>X6.    4 I.>X>X>X>X>XV.>     e.>X>X>X>X>X{.k                     ",
"E >X>X>X>X>X>X{     d {.>X>X>X>X>Xe.    - A.>X>X>X>X>XJ.4     6.>X>X>X>X>X.Xb     _ >X>X>X>X>X>X_     b .X>X>X>X>X>X6.    4 J.>X>X>X>X>XA.>     i.>X>X>X>X>X.Xs                     ",
"! >X>X>X>X>X>XA.6.3.s.=X>X>X>X>X>Xe.    > A.>X>X>X>X>XI.4     6.>X>X>X>X>X.Xb     _ >X>X>X>X>X>X]     b +X>X>X>X>X>Xq.    4 I.>X>X>X>X>XA.>     i.>X>X>X>X>X=Xs.6.6.6.6.6.6.6.6.6.v ",
"I ).$X>X>X>X>X>X>X>X>X>X>X>X>X>X>Xi.    > A.>X>X>X>X>XJ.4     6.>X>X>X>X>X+Xb     _ >X>X>X>X>X>X_     b +X>X>X>X>X>X6.    4 J.>X>X>X>X>XA.>     <..X=X>X>X>X>X>X>X>X>X>X>X>X>X>X>X! ",
"> w d.>X>X>X>X>X>X>X>X>X>X>X>X>X>Xi.    > A.>X>X>X>X>XI.4     q.>X>X>X>X>X$Xb     ] >X>X>X>X>X>X]     b +X>X>X>X>X>Xq.    4 I.>X>X>X>X>XA.>     9 b {.>X>X>X>X>X>X>X>X>X>X>X>X>X>X! ",
"    ] v.l.l.l.l.l.l.l.l.l.l.l.l.v.|       <.v.l.l.l.v.3.>     ] v.l.l.l.l.s.d     F l.l.l.l.l.l.D     d i.v.l.l.l.v.]     > 3.v.l.l.l.v.<.        > 6.l.l.l.l.l.l.l.l.l.l.l.l.l.l.C ",
"                                                                                                                                                                                    ",
"                                                                                                                                                                                    ",
"                                                                                                                                                                                    ",
"            =.v.l.l.l.l.l.l.l.l.l.v.b.;.        9 q.v.l.l.v.v.@.      =.v.l.l.l.v.q.5         ,.v.v.l.l.l.l.l.l.l.l.l.l.l.v.T     w i.l.l.l.l.l.l.l.l.l.l.l.l.v.d.z                 ",
"        4 s A.>X>X>X>X>X>X>X>X>X>X>X>XA.d 5     s ).>X>X>X>X>Xl.      b.>X>X>X>X>X!.w     5 d I.>X>X>X>X>X>X>X>X>X>X>X>X>X>X+.    k .X>X>X>X>X>X>X>X>X>X>X>X>X>X>X! 9               ",
"        { {.=X>X>X>X>X>X>X>X>X>X>X>X>X=X.X|     s !.>X>X>X>X>Xl.      b.>X>X>X>X>XE.u     +..X=X>X>X>X>X>X>X>X>X>X>X>X>X>X>X+.    d {.>X>X>X>X>X>X>X>X>X>X>X>X>X>X+XB.5             ",
"        =.>X>X>X>X>X>Xv.6.3.v.>X>X>X>X>X>X=.    s ).>X>X>X>X>Xl.      b.>X>X>X>X>XE.u     ,.>X>X>X>X>X=Xl.6.6.6.6.6.6.6.6.6.D     k {.>X>X>X>X>X!.6.6.q..X>X>X>X>X>XY.9             ",
"        @.>X>X>X>X>X=XF     D =X>X>X>X>X>X=.    u !.>X>X>X>X>Xl.      b.>X>X>X>X>X!.w     ,.>X>X>X>X>X=XN                         k ).>X>X>X>X>Xs.o   % B.>X>X>X>X>XY.5             ",
"        =.>X>X>X>X>X=XI     F =X>X>X>X>X>X=.    s ).>X>X>X>X>Xd.      b.>X>X>X>X>XE.w     ,.>X>X>X>X>X$XD                         k ).>X>X>X>X>Xs.      B.>X>X>X>X>XY.9             ",
"        @.>X>X>X>X>X=XI     I =X>X>X>X>X>X=.    u !.>X>X>X>X>Xl.      b.>X>X>X>X>XE.u     ,.>X>X>X>X>X=XF - 4 4 4                 d {.>X>X>X>X>Xd.> 4 9 A.>X>X>X>X.Xb.5             ",
"        @.>X>X>X>X>X$XI     F =X>X>X>X>X>X=.    u !.>X>X>X>X>Xl.      b.>X>X>X>X>XE.u     ;.>X>X>X>X>X>X!.J.I.J.I.F               k {.>X>X>X>X>X$XI.J.I.$X>X>X>X=X! 9               ",
"        @.>X>X>X>X>X=XI     F =X>X>X>X>X>X=.    s ).>X>X>X>X>Xl.      b.>X>X>X>X>X!.w     ,.>X>X>X>X>X>X>X>X>X>X>X/               d {.>X>X>X>X>X>X>X>X>X>X>X>X>X$XD                 ",
"        =.>X>X>X>X>X=XI     F $X>X>X>X>X>X=.    u ).>X>X>X>X>Xl.      b.>X>X>X>X>XE.w     ,.>X>X>X>X>X>X>X>X>X>X>X!               k {.>X>X>X>X>X>X>X>X>X>X>X>X>X$XN                 ",
"        @.>X>X>X>X>X=XI     I =X>X>X>X>X>X=.    u !.>X>X>X>X>Xl.      b.>X>X>X>X>X!.w     ,.>X>X>X>X>X=Xq.| +.+.+.k               d {.>X>X>X>X>XI.+.+.@.!.>X>X>X>Xq._               ",
"        @.>X>X>X>X>X=XT     F =X>X>X>X>X>X=.    s ).>X>X>X>X>Xl.      b.>X>X>X>X>XE.u     ,.>X>X>X>X>X$XN                         k {.>X>X>X>X>Xi..   # V.>X>X>X>X>XY.9             ",
"        =.>X>X>X>X>X=XF     F $X>X>X>X>X>X=.    u !.>X>X>X>X>Xd.      v.>X>X>X>X>X!.w     ,.>X>X>X>X>X$XC                         d {.>X>X>X>X>Xi.      V.>X>X>X>X>XY.9             ",
"        @.>X>X>X>X>X=X_ u w / >X>X>X>X>X>X=.    u !.>X>X>X>X>XB.s d d V.>X>X>X>X>XE.u     ,.>X>X>X>X>X=XE u s s s d d d d d 4     k {.>X>X>X>X>Xs.    - V.>X>X>X>X>XY.9             ",
"        =.>X>X>X>X>X>X+X).)..X>X>X>X>X>X>X;.    s ).>X>X>X>X>X=X).).{.=X>X>X>X>X>X!.w     ,.>X>X>X>X>X>X+X).).).).).).).).).]     k ).>X>X>X>X>Xs.    & B.>X>X>X>X>XY.5             ",
"        I q.).>X>X>X>X>X>X>X>X>X>X>X>X{.q.I     u !.>X>X>X>X>X>X>X>X>X>X>X>X>X>Xb.=.4     I e.{.>X>X>X>X>X>X>X>X>X>X>X>X>X>X+.    k {.>X>X>X>X>Xi.    - B.>X>X>X>X>XY.9             ",
"          + b.>X=X>X>X=X=X>X>X=X>X>X>Xb.#       u !.>X>X=X>X>X=X>X=X>X>X>X>X>X$XF           % B.>X=X=X>X=X>X=X>X>X=X>X>X>X>X+.    k ).>X>X=X>X>Xi.    - B.>X=X>X>X>XI.9             ",
"            C ! E E E E E ! E ! E E ! C         - I ! E ! E E E E E E E E E E E w             D ! E E ! E E ! E E E E E ! ! d     > I ! E E ! ! N       D ! E E E ! F               "
};
