/* XPM */
static char *dd25651b5ee34efaadd15e8776bb2a2dluROIHApTKnij6Ci[] = {
/* columns rows colors chars-per-pixel */
"32 32 4 1 ",
"  c black",
". c #7C0800",
"X c #887000",
"o c #F0BC3C",
/* pixels */
"ooX . .XX.. .XXo..X.. .Xo . XoXo",
"XoX X.Xo.. XXXXX.Xo X.XoX  XoooX",
"XX.  XXo XoX .. XXX.  Xo X .XooX",
".. .X X.XXo.X XoX.. oo .XXo .XX.",
"  .XXo..X....XXX.  Xoo .X   ... ",
".XX.Xo.X XX.XX.X.X .X .X Xoo   X",
"Xo.X.X  X..X.o .Xo.   o XooX X .",
"XX XX.. X. .o .XXX XX.. .oo o .X",
"X.. .XXo .. . .XX.. .XXo .X.. .X",
"..  XXXX.   X.Xo.. XXXXX.   X.Xo",
" ooX .. XXX. XXo XoX .. XXX. XXo",
"ooooo XoX...X X.XXo.X XoX...X X.",
"XoooX XX. .XX.oXX....XXX. .XXo..",
".XoX. .X.XX.X    XX.XX.X.XX.Xo.X",
"X .. o . o.X XooX .X.o .Xo.X.X .",
"X.  o .X X  XooooX .o .XXX XX..X",
"..X.. .Xo . XoXoooX . .XX.. .XXo",
".Xo X.XoX  XoooXXoX X.Xo.. XXXXX",
"XXX. XXo X .XooXXX.  XXo XoX .. ",
"X...X X.XXo .XX... .X X.XXo.X Xo",
". .XXo..X   ...   .XXo..X....XXX",
".XX.Xo.X Xoo   X.XX.Xo.X XX.XX.X",
"Xo.X.Xo XooX X .Xo.X.X  X..X.o .",
"XX XX.. .oo o .XXX XX.. X. .o .X",
"X.. .XXo .X.. .XX.. .XXo .. . .X",
".. XXXXX.   X.Xo.. XXXXX.   X.Xo",
" XoX .. XXX. XXo XoX .. XXX. XXo",
"XXo.X XoX.. o X.XXo.X XoX...X X.",
"X....XXX.  ooo .X....XXX. .XXo  ",
" XX.XX.X.X XoX X XX.XX.X.XX.X XX",
"X .X.o .Xo..X o.X .X.o . o.X Xoo",
"oX .o .XXX X ..XoX .o .X X  Xooo"
};
