/* XPM */
static char *dc96d35391484b36af175b20973bd8f0PsjGuxoDTLH4PTK7[] = {
/* columns rows colors chars-per-pixel */
"15 23 11 1 ",
"  c None",
". c black",
"X c #462C2C",
"o c #793E3E",
"O c #3E3560",
"+ c #816000",
"@ c #D1B123",
"# c #D99970",
"$ c #684FB9",
"% c #F0C199",
"& c #F8D9B9",
/* pixels */
"               ",
"               ",
"     XXX       ",
"   XX+++XX     ",
"  XX+++++@X    ",
" XX+++@+@@@XX  ",
"X+X+@@@@@@+++X ",
"X+#++@++X++++. ",
"XX&X+++++X++X. ",
" X&&XXX++XXX.  ",
" o&&&o#X+XXX.  ",
" o%%.%#X%#X.   ",
"  o%o%##%#.    ",
"   o####X.     ",
"   Ooo..$.     ",
"   O .  .$.    ",
"   . .  ##.    ",
"   .XXO$##..   ",
"  .@.+++....   ",
"  .+@@.....    ",
"   ....        ",
"               ",
"               "
};
