/* XPM */
static char *result[] = {
/* columns rows colors chars-per-pixel */
"32 32 24 1 ",
"  c black",
". c #173B0D",
"X c #54D82E",
"o c #5CEB32",
"O c #5AE731",
"+ c #5BEA32",
"@ c #5DEF33",
"# c #5DEE32",
"$ c #4CC42A",
"% c #3B9620",
"& c #5EF233",
"* c #34851C",
"= c #020501",
"- c #33821C",
"; c #5EF333",
": c #327F1B",
"> c #5EF133",
", c #3C9A21",
"< c #14350B",
"1 c #5CEC32",
"2 c #57DF2F",
"3 c #53D42D",
"4 c #5BE931",
"5 c white",
/* pixels */
"                           .XoOO",
"                           .XoOO",
"                           .XoOO",
"                           .XoOO",
"                           .XoOO",
"                           .XoOO",
"                           .XoOO",
"                           .XoOO",
"                           .XoOO",
"                           .XoOO",
"                           .XoOO",
"                           .XoOO",
"                           .XoOO",
"                           .XoOO",
"                           .XoOO",
"                           .Xo+@",
"                           .X#$%",
"                           .X&*=",
"                           .X&- ",
"                           .X;: ",
"                           .X>,<",
"                           .X123",
"                           .Xo41",
"                           .XoOO",
"                           .XoOO",
"                           .XoOO",
"                           .XoOO",
"                           .XoOO",
"                           .XoOO",
"                           .XoOO",
"                           .XoOO",
"                           .XoOO"
};
