/* XPM */
static char *b2e342129a7e43cfe9f8f69fe1895b7bkiIjsawCkH2jR99C[] = {
/* columns rows colors chars-per-pixel */
"19 32 135 2 ",
"   c #1D0031",
".  c #26043B",
"X  c #230D4C",
"o  c #34164A",
"O  c #4E3767",
"+  c #4A3D64",
"@  c #523C6B",
"#  c #46436B",
"$  c #54456E",
"%  c #4C4E72",
"&  c #404C78",
"*  c #584572",
"=  c #534970",
"-  c #5B4A74",
";  c #5D4878",
":  c #575479",
">  c #5C547B",
",  c #604D7A",
"<  c #67587E",
"1  c #BA3C3C",
"2  c #CC0606",
"3  c #CB1E1E",
"4  c #D21B1B",
"5  c #DC1B1B",
"6  c #ED0404",
"7  c #E50D0D",
"8  c #EA0C0B",
"9  c #F30000",
"0  c #ED1010",
"q  c #E41A1A",
"w  c #DD2424",
"e  c #D32B2A",
"r  c #DD2A2A",
"t  c #CD3434",
"y  c #CE3838",
"u  c #D63D3D",
"i  c #E12A2A",
"p  c #944758",
"a  c #9A4A59",
"s  c #945E71",
"d  c #836B7B",
"f  c #8A6A7D",
"g  c #906476",
"h  c #A17077",
"j  c #B47577",
"k  c #B97373",
"l  c #D04444",
"z  c #CA5656",
"x  c #C35F5F",
"c  c #C26B6B",
"v  c #CB6C6C",
"b  c #C77271",
"n  c #5F5D83",
"m  c #665782",
"M  c #645B83",
"N  c #6B5D85",
"B  c #6C5D8A",
"V  c #626085",
"C  c #6B628B",
"Z  c #65698B",
"A  c #776D85",
"S  c #746789",
"D  c #6F6790",
"F  c #6E6C92",
"G  c #746491",
"H  c #776A91",
"J  c #796B95",
"K  c #6B7395",
"L  c #697A96",
"P  c #727397",
"I  c #7A7897",
"U  c #72789B",
"Y  c #876F83",
"T  c #86768E",
"R  c #9B7988",
"E  c #807494",
"W  c #867A96",
"Q  c #6E839F",
"!  c #7A839D",
"~  c #748BA6",
"^  c #758FAB",
"/  c #7FA4BB",
"(  c #8F848C",
")  c #9A8391",
"_  c #9B939B",
"`  c #9086A2",
"'  c #978FA7",
"]  c #979CA6",
"[  c #9D93AA",
"{  c #9A9EB3",
"}  c #A59BA0",
"|  c #A49BAC",
" . c #90A5AF",
".. c #9BACB5",
"X. c #B9A7A7",
"o. c #B4A4A8",
"O. c #ACA5B4",
"+. c #B1A8B6",
"@. c #B6B0BD",
"#. c #C29494",
"$. c #C59D9D",
"%. c #C6A1A1",
"&. c #C8B3B3",
"*. c #82AFC5",
"=. c #84B4C6",
"-. c #87B9CC",
";. c #98B9C3",
":. c #B7B3C0",
">. c #BBB6C2",
",. c #BFBAC5",
"<. c #C0BCC8",
"1. c #8FC7D9",
"2. c #94C5D2",
"3. c #93CEDD",
"4. c #94D3E4",
"5. c #96D7E8",
"6. c #97DBEC",
"7. c #99DAEB",
"8. c #C6C3CC",
"9. c #CECBCB",
"0. c #D3CACA",
"q. c #CDCBD1",
"w. c #D1CFD6",
"e. c #D4D5D6",
"r. c #D9D5D5",
"t. c #D6D5DA",
"y. c #DEDCE0",
"u. c #E2E3E3",
"i. c #E7EAEA",
"p. c #EBECEC",
"a. c #E3F1F7",
"s. c #EDF1F1",
"d. c #E6F4F9",
"f. c #F5F6F5",
"g. c #F8F8F8",
/* pixels */
"7.7.7.7.6.6.1.~ Z C m m K ^ *.4.6.5.5.",
"7.7.2.] _ ( d p g a f R s Y d h h h ;.",
"7.7. .4 2 1 k 8 4 q #.u 8 b w 8 6 e ..",
"7.7.] 7 4 k X.w 9 r #.w 0 #.$.r w } 2.",
"6.6._ 6 w r 3 7 l 6 u 5 i 9.9.r 0 o.5.",
"7.6._ t y z c z &.v %.x c u.0.t q j 3.",
"7.4.! W e.s.p.r.p.u.s.i.p.f.u.&.) A =.",
"7.-.N ' f.g.g.g.g.g.g.g.g.f.g.g.| B / ",
"6. .B :.g.g.g.g.g.g.g.g.g.g.g.g.<.G ^ ",
"4.K N t.g.g.g.g.g.g.g.g.g.g.g.g.q.m Q ",
"1.F I i.g.g.g.g.g.g.g.g.g.g.g.g.q.N ~ ",
"=.M ' f.g.f.g.g.g.g.f.g.g.g.g.g.q.H ~ ",
"/ m O.g.g.g.g.g.g.g.f.g.g.g.g.g.q.$ L ",
"U m >.g.g.g.g.g.g.g.g.g.g.g.g.g.w.G U ",
"K > 8.g.g.g.g.g.f.g.g.g.g.g.g.g.t.m M ",
"Z B t.g.g.g.g.f.g.g.g.g.g.f.g.g.y.< n ",
"m N y.g.g.g.f.g.g.g.g.g.g.g.g.g.t.J F ",
"C J y.g.g.g.g.g.g.g.g.g.g.g.g.g.q.- = ",
": < y.g.g.g.g.g.g.g.g.g.g.g.g.g.w.G C ",
"D E i.g.g.f.g.g.g.g.g.g.g.g.g.g.q.m - ",
"> S p.g.g.g.g.g.g.g.g.g.g.g.g.g.q., * ",
"> J s.g.g.g.g.f.g.g.f.g.g.g.g.g.e.J C ",
"B ` f.g.g.f.g.g.g.g.g.g.g.g.g.g.q.; $ ",
"$ T f.g.g.g.g.g.f.g.g.g.g.g.g.g.,.B C ",
"N [ g.g.g.g.g.g.g.g.g.g.f.g.g.g.>.G P ",
"+ | g.g.g.g.g.g.g.f.g.g.g.g.g.g.@.@ : ",
"n O.g.g.g.g.g.g.g.g.g.g.g.f.g.g.>.; V ",
"+ O.g.g.g.g.g.g.g.g.g.g.g.g.g.g.@.@ > ",
"O | g.g.g.g.g.f.g.g.g.g.g.g.g.g.+.@ : ",
". ' g.g.g.g.g.g.g.g.g.g.g.g.g.g.+.o % ",
". T g.g.g.g.g.g.g.g.g.g.g.g.g.g.+.. # ",
"  I d.a.d.a.a.a.a.a.a.d.d.d.a.d.{ X & "
};
