/* XPM */
static char *e70a0601ce2c40dbfa7f530c006df1c0KwMbCkm9YNzRjrPz[] = {
/* columns rows colors chars-per-pixel */
"17 32 141 2 ",
"   c #7B547B",
".  c #8C1E00",
"X  c #8E2200",
"o  c #902501",
"O  c #912B09",
"+  c #9C3206",
"@  c #97300A",
"#  c #8D2D14",
"$  c #9B3711",
"%  c #9E3B13",
"&  c #973B1E",
"*  c #AD430E",
"=  c #B1450A",
"-  c #B84C0D",
";  c #A74112",
":  c #A2421A",
">  c #A9491E",
",  c #B04710",
"<  c #B64D12",
"1  c #BF5616",
"2  c #A74B23",
"3  c #AA4D23",
"4  c #A94F29",
"5  c #AE562D",
"6  c #B75926",
"7  c #B35B30",
"8  c #BE602A",
"9  c #B7653B",
"0  c #C15716",
"q  c #C55C1A",
"w  c #C85E19",
"e  c #CB631D",
"r  c #D06921",
"t  c #DC7424",
"y  c #C66E37",
"u  c #C46F3B",
"i  c #E67D26",
"p  c #E27C2A",
"a  c #81404A",
"s  c #96524D",
"d  c #975756",
"f  c #BA6B41",
"g  c #BF7A56",
"h  c #96626A",
"j  c #AB6C61",
"k  c #C27549",
"l  c #C87C4C",
"z  c #C47B51",
"x  c #E6812D",
"c  c #E9842D",
"v  c #E28132",
"b  c #EC8730",
"n  c #EF8930",
"m  c #F18C31",
"M  c #F59034",
"N  c #FB9636",
"B  c #FE9936",
"V  c #FD9A3A",
"C  c #CF804A",
"Z  c #C78156",
"A  c #CD8555",
"S  c #CA865B",
"D  c #CC885D",
"F  c #F59741",
"G  c #F09748",
"H  c #EA9D59",
"J  c #FEA043",
"K  c #FFA54A",
"L  c #EFA45F",
"P  c #CC8B63",
"I  c #C18269",
"U  c #D18F62",
"Y  c #D29469",
"T  c #D5986D",
"R  c #C08D7F",
"E  c #D99D71",
"W  c #E29F67",
"Q  c #DDA06F",
"!  c #DFA87B",
"~  c #ECA767",
"^  c #FCB66C",
"/  c #E6AE7B",
"(  c #FDBE78",
")  c #7B5A87",
"_  c #7A6195",
"`  c #7568AA",
"'  c #736EB9",
"]  c #7974BC",
"[  c #6F76CF",
"{  c #7475C4",
"}  c #7377CB",
"|  c #6B79DA",
" . c #717CD8",
".. c #6A7CE2",
"X. c #886A8F",
"o. c #816FA4",
"O. c #8678B0",
"+. c #7C82D2",
"@. c #7E8ADF",
"#. c #6E86EF",
"$. c #7B8BE5",
"%. c #7F94EE",
"&. c #6E89F6",
"*. c #6586FE",
"=. c #6689FF",
"-. c #6888FC",
";. c #728CF5",
":. c #7C94F2",
">. c #BB9592",
",. c #9C91BD",
"<. c #AD8FA1",
"1. c #A492B2",
"2. c #E3AE82",
"3. c #E4B284",
"4. c #E9B98B",
"5. c #FDC484",
"6. c #F1C494",
"7. c #F6CE9F",
"8. c #DCC7BD",
"9. c #EBCBAB",
"0. c #FCD7A7",
"q. c #FFDAA5",
"w. c #F9D6AA",
"e. c #FDD9A9",
"r. c #E4CCB7",
"t. c #FFE3B2",
"y. c #8A88C7",
"u. c #928EC7",
"i. c #868BD6",
"p. c #888BD1",
"a. c #99A0DC",
"s. c #A4A8DA",
"d. c #A8ABD8",
"f. c #B3B1D2",
"g. c #8194EC",
"h. c #8899EA",
"j. c #8198F1",
"k. c #97A4E6",
"l. c #9CA8E5",
"z. c #C6BBC7",
"x. c #CFC0C2",
/* pixels */
"-.-.-.-.-.-.-.-.-.-.-.-.-.-.-.-.-.",
"-.-.-.-.*.*.*.*.=.=.*.*.=.=.-.-.-.",
"-.-.-.-.j.l.k.l.l.l.l.a.y.| =.-.-.",
"-.-.*.:.>.A A A A A Q 6.l h | =.-.",
"=.=.j.8./ Z A D D D S > z H O.=.-.",
"-.*.a.q.e.t.e.z 9 9 g T Z v ,.=.-.",
"-.=.a.q.Y 3 5 T ! U @ 5 $ C a.=.-.",
"-.g.9.E z 3.3.7 > : o o O & ] =.-.",
"=.{ l 7.k ; % p M x $ - R +.#.=.-.",
"-.%.r.P e V * c B K W w V V <.&.-.",
"=.=.l.U w V e r M p V V V V B p.*.",
"-.=.y.7 * c V e b + e r e e I $.=.",
"-.=.| a = n V V M q X X .   ..*.-.",
"-.-.=...d i V B V N t t j [ *.-.-.",
"-.-.-.=...s * m M , * * h *.*.-.-.",
"-.-.=.-.) D 6.> n t 4 6.g _ -.-.-.",
"-.=.-.>.1 Y e.2 m c 5 t.Z e 1.-.-.",
"-.*.u.V 0 Y t.> m x 5 t.Z e V @.*.",
"=.#.>.V 0 Y 2.6 M n 8 4.Z e V <.&.",
"=.p.B V 1 T 7 c N V t f S e V V @.",
"=.p.N V x u % b V V x : y c V V @.",
"=.p.B V V < X * < < ; X q V N V @.",
"=.p.B V N ~ 2.: o X 2 3.L N V V @.",
"=.i.F N V 5.w.6.6.6.6.e.( N N G $.",
"=.=.,.V ( e.0.e.q.e.e.e.e.^ J y.-.",
"-.*.a.q.0.e.0.e.q.q.e.e.e.0.q.h.-.",
"-.-.g.r.e.e.e.0.q.q.e.e.e.0.8.:.*.",
"-.-.*.s.q.0.e.w.f.z.e.e.e.0.a.*.-.",
"-.-.*.s.q.e.e.w.;.:.e.e.e.q.a.*.-.",
"-.-.-.:.x.q.e.d.;.;.f.e.q.z.;.*.-.",
"-.*.' ) X.3 4  .=.=.} 3 > o.  [ =.",
"=.=.` O # X X [ =.=.' X X # O { =."
};
