/* XPM */
static char *_49cd9ad3176406984866b5a5a6da8d8ZSldd1h6rEZ0v6Qt[] = {
/* columns rows colors chars-per-pixel */
"15 23 11 1 ",
"  c None",
". c black",
"X c #462C2C",
"o c #793E3E",
"O c #3E3560",
"+ c #816000",
"@ c #D1B123",
"# c #D99970",
"$ c #684FB9",
"% c #F0C199",
"& c #F8D9B9",
/* pixels */
"               ",
"               ",
"      XXX      ",
"    XX+++XX    ",
"   X@+++++XX   ",
" XX@@@+@+++XX  ",
"X+++@@@@@@+X+X ",
".++++X++@++#+X ",
".X++X+++++X&XX ",
" .XXX++XXX&&X  ",
" .XXX+X#o&&&o  ",
"  .X#%X#%.%%o  ",
"   .#%##%o%o   ",
"    .X####o    ",
"    .$..ooO    ",
"   .$.  . O    ",
"   .$.  %%.    ",
"  .++O.$##.    ",
"  .@+++Oo..    ",
"  .+@@....     ",
"   ...         ",
"               ",
"               "
};
