/* XPM */
static char *result[] = {
/* columns rows colors chars-per-pixel */
"32 32 14 1 ",
"  c #CEBD9D",
". c #D2BF9E",
"X c #D5C19F",
"o c #D6C3A2",
"O c #DAC6A4",
"+ c #DDC9A6",
"@ c #DECAA8",
"# c #E1CBA6",
"$ c #E3CDA9",
"% c #E6D1AC",
"& c #EAD3AE",
"* c #ECD6B0",
"= c #EED8B1",
"- c #F1DAB3",
/* pixels */
"-*$*&@@@o@&$@@&*-&@@&&$O#&&$+OO&",
"O$=@%-*&-&@@**%@@%*&++$&%#+#%&$O",
"$@O@$O@$@@*%O@@@@%OO%&#+#%%@OO##",
"=--%%**&*%@&&&%*&$-*++##+OO%*&$#",
"@o@@%$%&%%%@@%@O$&+$**%&***#O#$#",
"@@%@@@$@*&$%&@&*$@&@OOOOOoO+###$",
"=*%**%*%@%%%%%$@$&$$&*-&$&&&$$##",
"oo@@@%%%*&$@$@@&&+@&$++$&#+##$#$",
"@%%@%@%%@%***&%@+$$#O##OO#&$++++",
"*@**%%%%*@@@O@@%$#&*****&$+#&$&$",
"@*oo@@%%%%*%*&&&*$OOXXXO+#$#OOOO",
"@@**%%@@%@%%@o@OO$*$%&*$#$#&&&$$",
"@@o@@@@%@*@@***=&O#&$#O####OOOO#",
"%*%**%%%*@*@@OooO#OoX#$####&$$$#",
"oo@@ooo@@@**@%*=*&&&&$$$$##OOOO#",
"*@@%****%@@@*%@O#OOOO#$####&$$&$",
"O$%%@Oo@%%%@o+@$$&$&&O###OOOOXXX",
"$@O@%%*%+@%&=&$+##Oo####&&&##&&$",
"%@%$@OO@&%@oo+%%&&&##OOOOXO##OOO",
"O@@%%*%@o@%&%%@+Xo##$$###&#OXOO#",
"%$@OOo@%*%$@@@@%%$o##oO##OO&*&$#",
"OO$&*%@@oO@$@@@@#$&$###XX##OXXXX",
"%$@oO@%%%%%@&%%@X.X+O+$%&##OO#$&",
"@@$$@OOO@$%$.O%%**$$##oXX#&$$#XX",
"$@@$%%**$OO$*$OoOO##O#$##XOOXX$&",
"@$$@oooo@*&$O@*%O+%$##OOO##$&#OO",
"@@@@%%$%%oO$$@o@*$O$#####OOXXOOO",
"%%%%$$$@@*%O$$$@O+#OXO##XO$&&$$$",
"o@@ooooo@OO$@$$$$$#&$##$##O.XOXX",
"%%@****=%%$@$#O+$#XXOOOOOX###$$#",
"@@@@@@@o@%$$O%&#O#&@#$#O#$##$#X#",
"@@@@oo@%$OO$%#O$$oO=$OX##X.OXO##"
};
