/* XPM */
static char *e84afa60485746eb89112b56e33a6aa459xtv8qIutOWkgB5[] = {
/* columns rows colors chars-per-pixel */
"32 32 121 2 ",
"   c None",
".  c black",
"X  c #010000",
"o  c #030000",
"O  c #060102",
"+  c #0D0400",
"@  c #0D0600",
"#  c #130500",
"$  c #1F0102",
"%  c #0E0C18",
"&  c #1F1918",
"*  c #270000",
"=  c #280000",
"-  c #290000",
";  c #321500",
":  c #220517",
">  c #2E0C14",
",  c #29061C",
"<  c #181C2D",
"1  c #3F383A",
"2  c #440203",
"3  c #4A1F00",
"4  c #4C131E",
"5  c #610000",
"6  c #670000",
"7  c #6A0302",
"8  c #6E0000",
"9  c #6C0302",
"0  c #730000",
"q  c #730300",
"w  c #750000",
"e  c #7B130D",
"r  c #601C1C",
"t  c #552500",
"y  c #792A00",
"u  c #400734",
"i  c #5E4A28",
"p  c #5E5735",
"a  c #6B4C32",
"s  c #6B5137",
"d  c #3F3F40",
"f  c #4A0740",
"g  c #4E0744",
"h  c #4E0746",
"j  c #4F0746",
"k  c #500747",
"l  c #540749",
"z  c #57074B",
"x  c #5F074E",
"c  c #63074F",
"v  c #6E0754",
"b  c #720755",
"n  c #675D55",
"m  c #8A0100",
"M  c #8C0000",
"N  c #8F0100",
"B  c #8F0200",
"V  c #9C0000",
"C  c #950D01",
"Z  c #981303",
"A  c #B00B00",
"S  c #9B3D00",
"D  c #A63501",
"F  c #AE3300",
"G  c #A63802",
"H  c #B53001",
"J  c #B53101",
"K  c #B13600",
"L  c #BE3C00",
"P  c #823637",
"I  c #C40000",
"U  c #E40000",
"Y  c #F90300",
"T  c #CD2E00",
"R  c #E12300",
"E  c #E02A00",
"W  c #F63C00",
"Q  c #B15D18",
"!  c #E34100",
"~  c #E64100",
"^  c #ED6E07",
"/  c #ED740C",
"(  c #83065E",
")  c #84065E",
"_  c #84095D",
"`  c #8A0C5F",
"'  c #963D42",
"]  c #973A44",
"[  c #8D0B60",
"{  c #8D0C60",
"}  c #8E0C60",
"|  c #951460",
" . c #9A1A60",
".. c #A22460",
"X. c #A62860",
"o. c #AB2D61",
"O. c #AE3160",
"+. c #B43961",
"@. c #B53A61",
"#. c #AD4554",
"$. c #B14D56",
"%. c #B34E57",
"&. c #BB4062",
"*. c #C24A62",
"=. c #F5841B",
"-. c #F9841B",
";. c #7E7798",
":. c #7C749A",
">. c #7E7899",
",. c #7C7AA0",
"<. c #7F7EA8",
"1. c #847A8C",
"2. c #847D8E",
"3. c #807DA7",
"4. c #807EA7",
"5. c #807FA9",
"6. c #8D8AB7",
"7. c #8E8EBC",
"8. c #968EBB",
"9. c #ABA9DE",
"0. c #ACAAE0",
/* pixels */
"                9.3.        0.n n 0.        5.9.                ",
"                5.p 2.      ;.Q Q :.      1.i 3.                ",
"                <.G H 4 8.7.> m m > 7.8.4 H D <.                ",
"                5.q m * % & + + + + & % - m 0 5.                ",
"        d s ;.6.,.o o ; t K ~ ~ ! ~ K t ; o o ,.6.>.a 1         ",
"        s / N $ < # S T R C 7 8 9 7 C R T S # < $ N ^ a         ",
"        ;.N 5 o 3 F A e r ' %.$.$.%.' r e A F 3 o 5 N >.        ",
"        6.$ o y E Z P #.*.+.O.O.O.O.+.*.#.P Z E y o $ 6.        ",
"9.3.<.6.,.< 3 E 2 ] &.o...| ` { { { | ..o.&.] 2 E 3 < ,.5.5.<.9.",
"3.p D 8 o # F Z ] +.X.{ ) v c c c c v ( ` X.+.] Z F # o 0 G p <.",
"  2.H m o S A P &. ._ b z h h h h h k z b _  .&.P A S o N H 2.  ",
"    4 * ; T e #.o.{ x h h h u , , u g g g c ` o.#.e T ; * 4     ",
"    8.% t R r *...( l h f : O o o O : f h l ( ..*.r R t % 8.    ",
"    7.& K C ' +.| v h h : o - q 0 * o : h l v | +.' C K & 7.    ",
"0.;.> + ~ 7 %.O.[ c h u O * L =.=.L * O u h c [ O.%.7 ~ + > ;.0.",
"n Q m + ! 7 $.O.{ c h , o 0 W =.-.W 0 o , h c { O.$.7 ! + m Q n ",
"n Q m @ W 0 %.O.{ c h , . 9 U Y Y U 8 o , h c [ o.%.7 ! + m Q n ",
"0.:.> + ! q %.O.[ c h u O * V I I V * O u h c [ O.%.7 ~ + > ;.0.",
"    7.& F C P &.| v h h : . * 6 6 * o : h h v | +.' C K & 7.    ",
"    7.% t R r *...( l h h : O . o o : f h h [ ..*.r R t % 8.    ",
"    4 - ; T e @.o.{ x h h h u , , u h h h x { o.#.e T ; - 4     ",
"  2.H N o S A a &. ._ b z h h h h k h k v _  .&.P A S o m H 1.  ",
"5.i D 0 o # F Z ] +.X.{ [ v c c c c v [ [ o.@.] Z F # o q D i 5.",
"9.5.<.<.,.< 3 E 2 ] &.o...| } } { { | ..o.@.] 2 E 3 < ,.5.<.5.9.",
"        6.$ o y E Z a #.*.+.o.O.O.O.+.*.#.P Z E y o $ 6.        ",
"        >.N 5 o 3 F A m r ] %.%.$.%.' r e A F 3 o 5 N >.        ",
"        a ^ N $ < # S T R C 7 7 7 7 C R T S # < $ N ^ a         ",
"        1 a >.6.,.o o ; t K ~ ~ ! ~ F t ; o o ,.6.>.a 1         ",
"                6.8 m * % & + + @ + & % * N 0 <.                ",
"                <.D H 4 8.7.> m m > 7.8.4 H D <.                ",
"                3.i 1.      :.Q Q ;.      1.i 3.                ",
"                9.5.        0.n n 0.        6.9.                "
};
