/* XPM */
static char *_0aaf9d473a94c4efec26e9620a55470aiDmQUam7YzCCV9g[] = {
/* columns rows colors chars-per-pixel */
"32 32 3 1 ",
"  c black",
". c #747474",
"X c #BCBCBC",
/* pixels */
" XXXX XXXXX .XXXXXX .XXXX XXX XX",
" .... ..... ..XXXXX ..XXX ... ..",
"            ....... .....       ",
" .XXXXX XXX               .XXXXX",
" ..XXXX XXX .XX .XXXX .XX ..XXXX",
" ......     .XX ..XXX .XX .XXXXX",
"        .XX ... ..... .XX ..X.X.",
" .XXXXX ..X           ..X ......",
" ..XXXX .XX .XXXX .XX ...       ",
" .XXXXX ..X ..XXX .XX     .XXXXX",
" ..X.X. ... ..... ... XXX ..XXXX",
" ......               ... ......",
"        .XXXX .XXXXXX           ",
" XX XXX ..XXX ..XXXXX XXXXXX XXX",
" .. ... ..... ....... ...... ...",
"                                ",
" .. ..... ...... .. ... ..... ..",
" .. ..... ...... .. ... ..... ..",
" ..                             ",
" .. .... .... ..... ... ... ....",
" .. .... .... ..... ... ... ....",
" .. .... .... ..... ... ... ....",
"                        ... ....",
" ....X ...X ...X ....X          ",
" ..... .... .... ..... ........X",
" ..... .... ....       .........",
" ..... .... .... ...XX .........",
"                 ....X          ",
" .X ...XX ....XX ..... ..X ....X",
" .. ....X .....X ..... ... .....",
" .. ..... ...... ..... ... .....",
"                                "
};
